<svg width="512" height="512" viewBox="0 0 512 512" fill="none" xmlns="http://www.w3.org/2000/svg">
<rect width="511.997" height="512" rx="255.998" fill="#101828"/>
<path d="M250.113 196.158C250.113 196.158 258.485 196.16 260.832 196.158L262.748 205.679C267.079 227.197 283.982 244.017 305.607 248.328L315.175 250.235C315.175 252.569 315.175 260.901 315.175 260.901L305.607 262.808C283.982 267.118 267.079 283.938 262.748 305.457L260.832 314.977C260.832 314.977 252.459 314.977 250.113 314.977L248.196 305.457C243.865 283.938 226.962 267.118 205.337 262.808L195.77 260.901V250.235L205.337 248.328C226.962 244.017 243.865 227.197 248.196 205.679L250.113 196.158Z" fill="white"/>
<path d="M135.882 255.985C135.882 271.678 123.097 284.4 107.326 284.4C91.5545 284.4 78.7695 271.678 78.7695 255.985C78.7695 240.291 91.5545 227.569 107.326 227.569C123.097 227.569 135.882 240.291 135.882 255.985Z" fill="white"/>
<path d="M433.228 255.985C433.228 271.678 420.443 284.4 404.672 284.4C388.901 284.4 376.116 271.678 376.116 255.985C376.116 240.291 388.901 227.569 404.672 227.569C420.443 227.569 433.228 240.291 433.228 255.985Z" fill="white"/>
<path d="M284.555 404.815C284.555 420.509 271.77 433.231 255.999 433.231C240.228 433.231 227.443 420.509 227.443 404.815C227.443 389.122 240.228 376.4 255.999 376.4C271.77 376.4 284.555 389.122 284.555 404.815Z" fill="white"/>
<path d="M284.555 107.185C284.555 122.879 271.77 135.601 255.999 135.601C240.228 135.601 227.443 122.879 227.443 107.185C227.443 91.4917 240.228 78.7695 255.999 78.7695C271.77 78.7695 284.555 91.4917 284.555 107.185Z" fill="white"/>
</svg>
