<svg width="512" height="512" viewBox="0 0 512 512" fill="none" xmlns="http://www.w3.org/2000/svg">
<rect width="511.997" height="512" rx="255.998" fill="url(#paint0_linear_2602_6487)"/>
<path d="M250.112 196.158C250.112 196.158 258.484 196.16 260.831 196.158L262.747 205.679C267.078 227.197 283.982 244.017 305.606 248.328L315.174 250.235C315.174 252.569 315.174 260.901 315.174 260.901L305.606 262.808C283.982 267.118 267.078 283.938 262.747 305.457L260.831 314.977C260.831 314.977 252.458 314.977 250.112 314.977L248.195 305.457C243.864 283.938 226.961 267.118 205.336 262.808L195.769 260.901V250.235L205.336 248.328C226.961 244.017 243.864 227.197 248.195 205.679L250.112 196.158Z" fill="#171717"/>
<path d="M135.881 255.985C135.881 271.678 123.096 284.4 107.325 284.4C91.5535 284.4 78.7686 271.678 78.7686 255.985C78.7686 240.291 91.5535 227.569 107.325 227.569C123.096 227.569 135.881 240.291 135.881 255.985Z" fill="#171717"/>
<path d="M433.227 255.985C433.227 271.678 420.442 284.4 404.671 284.4C388.9 284.4 376.115 271.678 376.115 255.985C376.115 240.291 388.9 227.569 404.671 227.569C420.442 227.569 433.227 240.291 433.227 255.985Z" fill="#171717"/>
<path d="M284.554 404.815C284.554 420.509 271.769 433.231 255.998 433.231C240.227 433.231 227.442 420.509 227.442 404.815C227.442 389.122 240.227 376.4 255.998 376.4C271.769 376.4 284.554 389.122 284.554 404.815Z" fill="#171717"/>
<path d="M284.554 107.185C284.554 122.879 271.769 135.601 255.998 135.601C240.227 135.601 227.442 122.879 227.442 107.185C227.442 91.4917 240.227 78.7695 255.998 78.7695C271.769 78.7695 284.554 91.4917 284.554 107.185Z" fill="#171717"/>
<defs>
<linearGradient id="paint0_linear_2602_6487" x1="0" y1="0" x2="512" y2="511.997" gradientUnits="userSpaceOnUse">
<stop stop-color="#FFF085" stop-opacity="0.4"/>
<stop offset="0.6154" stop-color="#D0ADFF" stop-opacity="0.19"/>
<stop offset="1" stop-color="#FFEDD4" stop-opacity="0.3"/>
</linearGradient>
</defs>
</svg>
