<svg width="21" height="21" viewBox="0 0 21 21" fill="none" xmlns="http://www.w3.org/2000/svg">
<path fill-rule="evenodd" clip-rule="evenodd" d="M10.5 15.0002C10.776 15.0002 10.9998 15.2243 11 15.5002V17.5002H12.6807L12.8096 17.5061C13.1096 17.5322 13.3964 17.6479 13.6309 17.8401C13.8987 18.0598 14.0824 18.3665 14.1504 18.7063L14.4102 20.0002H16.5C16.776 20.0003 16.9998 20.2243 17 20.5002C17 20.7763 16.7761 21.0002 16.5 21.0002H4.5C4.22386 21.0002 4 20.7764 4 20.5002C4.00025 20.2243 4.22401 20.0002 4.5 20.0002H6.58984L6.84961 18.7063C6.91762 18.3665 7.10127 18.0598 7.36914 17.8401C7.63696 17.6205 7.97303 17.5005 8.31934 17.5002H10V15.5002C10.0002 15.2244 10.2242 15.0004 10.5 15.0002ZM8.23438 18.508C8.15031 18.5228 8.0707 18.5589 8.00391 18.6135C7.9147 18.6867 7.8528 18.7894 7.83008 18.9026L7.61035 20.0002H13.3896L13.1699 18.9026C13.1472 18.7894 13.0853 18.6867 12.9961 18.6135C12.9293 18.5588 12.8497 18.5228 12.7656 18.508L12.6797 18.5002H8.32031L8.23438 18.508Z" fill="white"/>
<path fill-rule="evenodd" clip-rule="evenodd" d="M10.501 0.00120356C11.229 0.0025668 11.9075 0.0246449 12.5352 0.0695629C12.8103 0.0892722 13.0173 0.328664 12.998 0.603743C12.9783 0.879121 12.7392 1.08722 12.4639 1.06761C11.8626 1.02458 11.2068 1.00154 10.498 1.00023C9.05959 0.994252 7.6217 1.10851 6.20215 1.34105L6.20117 1.34007C5.01976 1.53926 4.66096 1.62309 4.3252 2.03636C3.99271 2.44585 3.98479 2.86185 4.03711 4.18675C4.12764 6.45155 4.42721 8.93439 5.375 10.8381C5.84499 11.782 6.46625 12.5674 7.28613 13.1174C8.10281 13.6651 9.14765 14.0001 10.5 14.0002C11.8527 14.0002 12.8972 13.6642 13.7139 13.1164C14.5338 12.5664 15.1552 11.7821 15.625 10.8381C16.5724 8.93421 16.8714 6.45117 16.9609 4.18675L16.9854 3.34886C16.9898 2.65511 16.9221 2.3449 16.6719 2.03734L16.6709 2.03636C16.4073 1.71112 16.1164 1.58264 15.4063 1.44749C15.1352 1.39568 14.9562 1.13366 15.0078 0.862532C15.0597 0.591863 15.322 0.413862 15.5928 0.465071C16.3634 0.61171 16.9532 0.79638 17.4473 1.4055L17.5557 1.55003C17.8816 2.0192 17.973 2.52819 17.9854 3.13499L18.6074 3.343C19.0911 3.50424 19.494 3.63806 19.8086 3.78441C20.1349 3.93627 20.4133 4.12211 20.623 4.41331C20.8324 4.70432 20.9202 5.02672 20.9609 5.38402C21.0002 5.72893 21 6.15397 21 6.66331V6.73656C21 7.15638 21.0006 7.50849 20.9717 7.79808C20.9416 8.09862 20.8765 8.37304 20.7236 8.63304C20.5706 8.89303 20.3623 9.08296 20.1143 9.25511C19.9947 9.33805 19.8577 9.42205 19.7051 9.51097L19.2002 9.79613L16.5195 11.2844C15.992 12.3442 15.2679 13.279 14.2715 13.9475C13.2713 14.6184 12.0273 15.0002 10.5 15.0002C8.97309 15.0001 7.72961 14.6182 6.72949 13.9475C5.73291 13.279 5.00729 12.3443 4.47949 11.2844L1.79981 9.79613C1.43289 9.59169 1.1248 9.42098 0.885743 9.25511C0.637728 9.08296 0.429444 8.89303 0.276368 8.63304C0.123467 8.37304 0.058367 8.09862 0.0283213 7.79808C-0.000582553 7.50849 2.85126e-07 7.15638 9.50835e-07 6.73656V6.66331C9.50835e-07 6.15397 -0.000248294 5.72893 0.0390634 5.38402C0.0798362 5.02672 0.167582 4.70432 0.376954 4.41331C0.586652 4.12211 0.865057 3.93627 1.19141 3.78441C1.506 3.63806 1.90887 3.50424 2.39258 3.343L3.01465 3.13499C3.0283 2.46555 3.13617 1.91487 3.54883 1.40648C4.16458 0.64856 4.94477 0.539009 6.03809 0.354719L6.04102 0.353743C7.51482 0.112348 9.00657 -0.00590869 10.5 0.000227002H10.502L10.501 0.00120356ZM2.70899 4.29124C2.20344 4.45975 1.86423 4.57394 1.61328 4.69066C1.37403 4.802 1.26174 4.89556 1.18848 4.9973C1.11531 5.09903 1.06216 5.23503 1.03223 5.4973C1.00086 5.77253 1 6.13105 1 6.66331V6.73656C1 7.17598 1.00062 7.46986 1.02344 7.69847C1.04514 7.9156 1.08387 8.03352 1.1377 8.12523C1.19159 8.21677 1.27622 8.30802 1.45606 8.43284C1.64512 8.56405 1.90157 8.70783 2.28613 8.9221L3.88867 9.81175C3.31014 8.01653 3.10929 6.00797 3.03809 4.22679C3.03749 4.21176 3.03673 4.19679 3.03613 4.18187L2.70899 4.29124ZM17.96 4.22679C17.8895 6.008 17.6888 8.01635 17.1104 9.81175L18.7139 8.9221L19.2021 8.64671C19.3381 8.56766 19.4494 8.49847 19.5439 8.43284C19.7238 8.30802 19.8084 8.21677 19.8623 8.12523C19.9161 8.03352 19.9549 7.9156 19.9766 7.69847C19.9994 7.46987 20 7.17598 20 6.73656V6.66331C20 6.13105 19.9991 5.77253 19.9678 5.4973C19.9378 5.23503 19.8847 5.09903 19.8115 4.9973C19.7383 4.89556 19.626 4.802 19.3867 4.69066C19.2613 4.63235 19.1137 4.57502 18.9346 4.51097L18.291 4.29124L17.9609 4.18089C17.9603 4.19612 17.9606 4.21144 17.96 4.22679Z" fill="white"/>
</svg>
