<svg width="24" height="24" viewBox="0 0 24 24" fill="none" xmlns="http://www.w3.org/2000/svg">
<path d="M0 17.916C0 17.6399 0.223858 17.416 0.5 17.416C0.776142 17.416 1 17.6399 1 17.916C1 20.4013 3.01472 22.416 5.5 22.416C5.77614 22.416 6 22.6399 6 22.916C6 23.1922 5.77614 23.416 5.5 23.416C2.46243 23.416 0 20.9536 0 17.916ZM20 17.916C20 17.6399 20.2239 17.416 20.5 17.416C20.7761 17.416 21 17.6399 21 17.916C21 20.9536 18.5376 23.416 15.5 23.416C15.2239 23.416 15 23.1922 15 22.916C15 22.6399 15.2239 22.416 15.5 22.416C17.9853 22.416 20 20.4013 20 17.916ZM0 7.91602C0 4.87845 2.46243 2.41602 5.5 2.41602C5.77614 2.41602 6 2.63987 6 2.91602C6 3.19216 5.77614 3.41602 5.5 3.41602C3.01472 3.41602 1 5.43073 1 7.91602C1 8.19216 0.776142 8.41602 0.5 8.41602C0.223858 8.41602 0 8.19216 0 7.91602Z" fill="white"/>
<path d="M7.41432 10.5261C7.41432 11.0689 6.97423 11.509 6.43135 11.509C5.88847 11.509 5.22808 11.0622 4.91855 10.5261C5.22808 9.97643 5.88847 9.54309 6.43135 9.54309C6.97423 9.54309 7.41432 9.98318 7.41432 10.5261Z" fill="white"/>
<path d="M15.5944 10.5261C15.5944 11.0689 15.1543 11.509 14.6115 11.509C14.0686 11.509 13.4082 11.0622 13.0986 10.5261C13.4082 9.97643 14.0686 9.54309 14.6115 9.54309C15.1543 9.54309 15.5944 9.98318 15.5944 10.5261Z" fill="white"/>
<path d="M11.1806 15.5771C11.9027 15.5856 12.3198 16.3108 13.0985 16.7604C12.9561 17.0486 12.7363 17.3054 12.5008 17.52C10.9924 19.0284 9.71795 18.7384 8.49955 17.52C8.26505 17.3062 8.04217 17.049 7.90185 16.7604C8.77411 16.2568 9.69965 14.9409 10.5002 15.9073C10.6017 15.7847 10.8265 15.573 11.1806 15.5771Z" fill="white"/>
<path d="M19.786 0C19.786 0 20.2101 5.31843e-05 20.329 0L20.426 0.484636C20.6455 1.58006 21.5017 2.4363 22.5971 2.65572L23.0818 2.75279C23.0818 2.87163 23.0818 3.29577 23.0818 3.29577L22.5971 3.39285C21.5017 3.61226 20.6455 4.46851 20.426 5.56393L20.329 6.04857C20.329 6.04857 19.9048 6.04857 19.786 6.04857L19.6889 5.56393C19.4695 4.46851 18.6133 3.61226 17.5178 3.39285L17.0332 3.29577V2.75279L17.5178 2.65572C18.6133 2.4363 19.4695 1.58006 19.6889 0.484636L19.786 0Z" fill="white"/>
</svg>
