<svg width="21" height="21" viewBox="0 0 21 21" fill="none" xmlns="http://www.w3.org/2000/svg">
<path d="M20 3C20 1.89543 19.1046 1 18 1H12C10.8954 1 10 1.89543 10 3V9C10 10.1046 10.8954 11 12 11H18C19.1046 11 20 10.1046 20 9V3ZM21 9C21 10.6569 19.6569 12 18 12H12C10.3431 12 9 10.6569 9 9V3C9 1.34315 10.3431 0 12 0H18C19.6569 0 21 1.34315 21 3V9Z" fill="white"/>
<path d="M4.5 11.0005V10.0005C4.5 8.83612 4.49865 7.91179 4.5957 7.18994C4.69471 6.4539 4.9045 5.85284 5.37891 5.37842C5.81803 4.93947 6.36589 4.72718 7.03027 4.61963C7.68022 4.51443 8.49355 4.5023 9.49902 4.50049C9.77514 4.49999 9.99946 4.72341 10 4.99951C10.0005 5.27563 9.77708 5.49995 9.50098 5.50049C8.47914 5.50233 7.74781 5.51675 7.19043 5.60694C6.64763 5.69479 6.32527 5.8471 6.08594 6.08643C5.82829 6.34415 5.67097 6.69851 5.58692 7.32373C5.50092 7.96344 5.5 8.80791 5.5 10.0005V11.0005C5.5 12.1927 5.50098 13.0367 5.58692 13.6763C5.67099 14.3016 5.82819 14.6568 6.08594 14.9146C6.34364 15.1722 6.6981 15.3295 7.32324 15.4136C7.96297 15.4996 8.80736 15.5005 10 15.5005H11C12.1926 15.5005 13.037 15.4996 13.6768 15.4136C14.3019 15.3295 14.6563 15.1722 14.9141 14.9146C15.1534 14.6752 15.3057 14.3529 15.3936 13.8101C15.4838 13.2527 15.4982 12.5214 15.5 11.4995C15.5005 11.2234 15.7248 11 16.001 11.0005C16.2769 11.0012 16.5005 11.2255 16.5 11.5015C16.4982 12.5068 16.486 13.3203 16.3809 13.9702C16.2733 14.6347 16.0602 15.1825 15.6211 15.6216C15.1466 16.096 14.5457 16.3048 13.8096 16.4038C13.0877 16.5008 12.1643 16.5005 11 16.5005H10C8.83572 16.5005 7.91225 16.5008 7.19043 16.4038C6.45427 16.3048 5.85339 16.096 5.37891 15.6216C4.90443 15.1471 4.69469 14.5463 4.5957 13.8101C4.49866 13.0883 4.5 12.1647 4.5 11.0005Z" fill="white"/>
<path d="M9.80472e-07 15.5005V14.5005C9.80472e-07 13.3361 -0.00134501 12.4118 0.0957041 11.69C0.19471 10.9539 0.404513 10.3529 0.878907 9.87843L1.04883 9.72413C1.45692 9.38804 1.94898 9.21373 2.53027 9.11964C3.18022 9.01444 3.99355 9.00229 4.99902 9.0005C5.27514 9.00001 5.49946 9.22342 5.5 9.49952C5.50049 9.77564 5.27708 9.99996 5.00098 10.0005C3.97914 10.0023 3.2478 10.0168 2.69043 10.1069C2.14764 10.1948 1.82527 10.3471 1.58594 10.5864L1.58496 10.5855C1.32732 10.8432 1.17097 11.1985 1.08692 11.8237C1.00092 12.4635 1 13.3079 1 14.5005V15.5005C1 16.6927 1.00098 17.5367 1.08692 18.1763C1.17099 18.8016 1.32819 19.1568 1.58594 19.4146C1.84364 19.6722 2.1981 19.8295 2.82324 19.9136C3.46297 19.9996 4.30736 20.0005 5.5 20.0005H6.5C7.69263 20.0005 8.53703 19.9996 9.17676 19.9136C9.80187 19.8295 10.1563 19.6722 10.4141 19.4146C10.6534 19.1752 10.8057 18.8529 10.8936 18.3101C10.9838 17.7527 10.9982 17.0214 11 15.9995C11.0005 15.7234 11.2248 15.5 11.501 15.5005C11.7769 15.5012 12.0005 15.7255 12 16.0015C11.9982 17.0068 11.986 17.8203 11.8809 18.4702C11.7733 19.1347 11.5602 19.6825 11.1211 20.1216C10.6466 20.596 10.0457 20.8048 9.30957 20.9038C8.58775 21.0008 7.66428 21.0005 6.5 21.0005H5.5C4.33572 21.0005 3.41225 21.0008 2.69043 20.9038C1.95427 20.8049 1.35339 20.596 0.878907 20.1216C0.404433 19.6471 0.19469 19.0463 0.0957041 18.3101C-0.00133669 17.5883 7.99153e-07 16.6647 9.80472e-07 15.5005Z" fill="white"/>
</svg>
