<svg width="21" height="21" viewBox="0 0 21 21" fill="none" xmlns="http://www.w3.org/2000/svg">
<path d="M0 10.5C0 4.70101 4.70101 0 10.5 0C11.2185 0 11.9208 0.0721712 12.5996 0.209961C12.8702 0.26495 13.0452 0.529221 12.9902 0.799805C12.9352 1.07029 12.6709 1.24535 12.4004 1.19043C11.7868 1.06587 11.1513 1 10.5 1C5.25329 1 1 5.25329 1 10.5C1 15.7467 5.25329 20 10.5 20C15.7467 20 20 15.7467 20 10.5C20 9.84875 19.9341 9.21327 19.8096 8.59961C19.7547 8.32909 19.9298 8.06482 20.2002 8.00977C20.4708 7.95487 20.7351 8.12987 20.79 8.40039C20.9277 9.07909 21 9.78149 21 10.5C21 16.2989 16.2989 21 10.5 21C4.70101 21 0 16.2989 0 10.5ZM5 10.5C5 7.46244 7.46244 5 10.5 5C10.7761 5 11 5.22386 11 5.5C11 5.77614 10.7761 6 10.5 6C8.01472 6 6 8.01472 6 10.5C6 12.9853 8.01472 15 10.5 15C12.9853 15 15 12.9853 15 10.5C15 10.2239 15.2239 10 15.5 10C15.7761 10 16 10.2239 16 10.5C16 13.5375 13.5375 16 10.5 16C7.46244 16 5 13.5375 5 10.5ZM16.6094 0.229492C17.1318 -0.197407 17.8652 0.0312646 18.1201 0.591797L18.165 0.708984L18.1689 0.723633L18.6436 2.42871L20.2441 2.82422C20.2505 2.82579 20.2574 2.82826 20.2637 2.83008C20.9293 3.02269 21.2242 3.84223 20.7588 4.4043C20.2003 5.07869 19.4919 5.90229 18.5586 6.37988C17.6473 6.84617 16.5617 6.96464 15.2627 6.43555L10.8838 10.8164C10.6886 11.0113 10.372 11.0114 10.1768 10.8164C9.9815 10.6211 9.9815 10.3037 10.1768 10.1084L14.5791 5.70508C14.0679 4.48877 14.1609 3.43361 14.5967 2.52832C15.0594 1.56738 15.8873 0.819534 16.6094 0.229492ZM17.2148 1.02637C16.5113 1.60342 15.8516 2.22568 15.4971 2.96191C15.1727 3.63569 15.0867 4.4425 15.5723 5.47949C16.6469 5.93707 17.449 5.82514 18.1035 5.49023C18.8229 5.1221 19.4077 4.46502 19.9707 3.78613L18.1201 3.33008C17.9451 3.28673 17.8071 3.15221 17.7588 2.97852L17.2148 1.02637Z" fill="white"/>
</svg>
