<svg width="25" height="24" viewBox="0 0 25 24" fill="none" xmlns="http://www.w3.org/2000/svg">
<path d="M1.44531 17.916C1.44531 17.6399 1.66917 17.416 1.94531 17.416C2.22145 17.416 2.44531 17.6399 2.44531 17.916C2.44531 20.4013 4.46003 22.416 6.94531 22.416C7.22145 22.416 7.44531 22.6399 7.44531 22.916C7.44531 23.1922 7.22145 23.416 6.94531 23.416C3.90775 23.416 1.44531 20.9536 1.44531 17.916ZM21.4453 17.916C21.4453 17.6399 21.6692 17.416 21.9453 17.416C22.2215 17.416 22.4453 17.6399 22.4453 17.916C22.4453 20.9536 19.9829 23.416 16.9453 23.416C16.6692 23.416 16.4453 23.1922 16.4453 22.916C16.4453 22.6399 16.6692 22.416 16.9453 22.416C19.4306 22.416 21.4453 20.4013 21.4453 17.916ZM1.44531 7.91602C1.44531 4.87845 3.90775 2.41602 6.94531 2.41602C7.22145 2.41602 7.44531 2.63987 7.44531 2.91602C7.44531 3.19216 7.22145 3.41602 6.94531 3.41602C4.46003 3.41602 2.44531 5.43073 2.44531 7.91602C2.44531 8.19216 2.22145 8.41602 1.94531 8.41602C1.66917 8.41602 1.44531 8.19216 1.44531 7.91602Z" fill="white"/>
<path d="M21.2313 0C21.2313 0 21.6554 5.31843e-05 21.7743 0L21.8714 0.484636C22.0908 1.58006 22.947 2.4363 24.0424 2.65572L24.5271 2.75279C24.5271 2.87163 24.5271 3.29577 24.5271 3.29577L24.0424 3.39285C22.947 3.61226 22.0908 4.46851 21.8714 5.56393L21.7743 6.04857C21.7743 6.04857 21.3502 6.04857 21.2313 6.04857L21.1342 5.56393C20.9148 4.46851 20.0586 3.61226 18.9632 3.39285L18.4785 3.29577V2.75279L18.9632 2.65572C20.0586 2.4363 20.9148 1.58006 21.1342 0.484636L21.2313 0Z" fill="white"/>
<path d="M0 12.707C0 12.4309 0.223858 12.207 0.5 12.207H23C23.2761 12.207 23.5 12.4309 23.5 12.707C23.5 12.9832 23.2761 13.207 23 13.207H0.5C0.223858 13.207 0 12.9832 0 12.707Z" fill="white"/>
</svg>
