<svg width="24" height="24" viewBox="0 0 24 24" fill="none" xmlns="http://www.w3.org/2000/svg">
<path d="M0 17.916C0 17.6399 0.223858 17.416 0.5 17.416C0.776142 17.416 1 17.6399 1 17.916C1 20.4013 3.01472 22.416 5.5 22.416C5.77614 22.416 6 22.6399 6 22.916C6 23.1922 5.77614 23.416 5.5 23.416C2.46243 23.416 0 20.9536 0 17.916ZM20 17.916C20 17.6399 20.2239 17.416 20.5 17.416C20.7761 17.416 21 17.6399 21 17.916C21 20.9536 18.5376 23.416 15.5 23.416C15.2239 23.416 15 23.1922 15 22.916C15 22.6399 15.2239 22.416 15.5 22.416C17.9853 22.416 20 20.4013 20 17.916ZM0 7.91602C0 4.87845 2.46243 2.41602 5.5 2.41602C5.77614 2.41602 6 2.63987 6 2.91602C6 3.19216 5.77614 3.41602 5.5 3.41602C3.01472 3.41602 1 5.43073 1 7.91602C1 8.19216 0.776142 8.41602 0.5 8.41602C0.223858 8.41602 0 8.19216 0 7.91602Z" fill="white"/>
<path d="M19.786 0C19.786 0 20.2101 5.31843e-05 20.329 0L20.426 0.484636C20.6455 1.58006 21.5017 2.4363 22.5971 2.65572L23.0818 2.75279C23.0818 2.87163 23.0818 3.29577 23.0818 3.29577L22.5971 3.39285C21.5017 3.61226 20.6455 4.46851 20.426 5.56393L20.329 6.04857C20.329 6.04857 19.9048 6.04857 19.786 6.04857L19.6889 5.56393C19.4695 4.46851 18.6133 3.61226 17.5178 3.39285L17.0332 3.29577V2.75279L17.5178 2.65572C18.6133 2.4363 19.4695 1.58006 19.6889 0.484636L19.786 0Z" fill="white"/>
<path d="M16.0332 13.207C16.0332 10.1695 13.5708 7.70703 10.5332 7.70703C7.49564 7.70703 5.0332 10.1695 5.0332 13.207C5.0332 16.2446 7.49564 18.707 10.5332 18.707C13.5708 18.707 16.0332 16.2446 16.0332 13.207ZM17.0332 13.207C17.0332 16.7969 14.1231 19.707 10.5332 19.707C6.94335 19.707 4.0332 16.7969 4.0332 13.207C4.0332 9.61718 6.94335 6.70703 10.5332 6.70703C14.1231 6.70703 17.0332 9.61718 17.0332 13.207Z" fill="white"/>
<path d="M14.0332 13.207C14.0332 11.274 12.4662 9.70703 10.5332 9.70703C8.60021 9.70703 7.0332 11.274 7.0332 13.207C7.0332 15.14 8.60021 16.707 10.5332 16.707C12.4662 16.707 14.0332 15.14 14.0332 13.207ZM15.0332 13.207C15.0332 15.6923 13.0185 17.707 10.5332 17.707C8.04792 17.707 6.0332 15.6923 6.0332 13.207C6.0332 10.7217 8.04792 8.70703 10.5332 8.70703C13.0185 8.70703 15.0332 10.7217 15.0332 13.207Z" fill="white"/>
</svg>
