<svg width="24" height="24" viewBox="0 0 24 24" fill="none" xmlns="http://www.w3.org/2000/svg">
<path d="M21.6258 12.2139C21.6258 11.4225 21.5603 10.845 21.4185 10.2461H12.1973V13.818H17.6099C17.5008 14.7057 16.9115 16.0425 15.602 16.9408L15.5836 17.0603L18.4992 19.2738L18.7012 19.2936C20.5563 17.6145 21.6258 15.1441 21.6258 12.2139Z" fill="#4285F4"/>
<path d="M12.1967 21.6258C14.8484 21.6258 17.0745 20.7702 18.7006 19.2944L15.6014 16.9415C14.772 17.5083 13.6589 17.904 12.1967 17.904C9.59946 17.904 7.39512 16.225 6.60933 13.9043L6.49415 13.9139L3.4625 16.2132L3.42285 16.3212C5.03791 19.4654 8.35536 21.6258 12.1967 21.6258Z" fill="#34A853"/>
<path d="M6.61006 13.9038C6.40272 13.305 6.28273 12.6632 6.28273 12.0002C6.28273 11.3371 6.40272 10.6955 6.59915 10.0966L6.59366 9.96906L3.524 7.63281L3.42357 7.67963C2.75792 8.98437 2.37598 10.4495 2.37598 12.0002C2.37598 13.5509 2.75792 15.016 3.42357 16.3207L6.61006 13.9038Z" fill="#FBBC05"/>
<path d="M12.1967 6.09664C14.0409 6.09664 15.2849 6.87733 15.9943 7.52974L18.7661 4.8775C17.0638 3.32681 14.8485 2.375 12.1967 2.375C8.35539 2.375 5.03792 4.53526 3.42285 7.6794L6.59844 10.0964C7.39514 7.77569 9.59949 6.09664 12.1967 6.09664Z" fill="#EB4335"/>
</svg>
