<svg width="24" height="24" viewBox="0 0 24 24" fill="none" xmlns="http://www.w3.org/2000/svg">
<g clip-path="url(#clip0_2159_9641)">
<path d="M11.9958 1.5C12.9045 1.5 13.6645 2.18852 14.1745 3.22168L15.9353 6.77051L15.9372 6.77441C16.0129 6.92999 16.1699 7.11427 16.3825 7.27246C16.5952 7.43064 16.8182 7.52974 16.99 7.55859L20.1794 8.09277L20.3845 8.13184C21.3921 8.3466 22.1581 8.86207 22.4138 9.66406C22.6864 10.5192 22.2983 11.4474 21.5007 12.2461L21.4997 12.2451L19.0222 14.7451C18.8868 14.8816 18.7586 15.1089 18.6814 15.3809C18.6047 15.6508 18.5918 15.9136 18.6335 16.1055L19.3444 19.2012C19.6337 20.467 19.5078 21.6006 18.7292 22.1729C17.9486 22.7466 16.833 22.5214 15.7214 21.8594L12.7312 20.0742C12.5576 19.9705 12.2946 19.9034 12.0017 19.9033C11.7091 19.9033 11.4412 19.9702 11.2605 20.0762L8.27414 21.8594L8.27316 21.8584C7.16432 22.5216 6.05011 22.7434 5.26925 22.1689C4.49076 21.5961 4.36111 20.4637 4.65109 19.2002L5.36105 16.1055C5.40283 15.9136 5.38987 15.6509 5.3132 15.3809C5.23598 15.1091 5.10869 14.8817 4.97336 14.7451L2.49386 12.2441C1.70187 11.4456 1.31434 10.519 1.58468 9.66504C1.85574 8.80919 2.7068 8.27913 3.81515 8.09277L7.00363 7.55859C7.16981 7.53014 7.38997 7.43117 7.60226 7.27246C7.81435 7.11388 7.97289 6.93017 8.04855 6.77441L8.04953 6.77051L9.80929 3.22168L9.81027 3.2207C10.3253 2.18781 11.0879 1.50023 11.9958 1.5ZM11.9958 2.5C11.647 2.50024 11.1492 2.77439 10.7048 3.66504L10.7058 3.66602L8.94699 7.20996L8.94797 7.21094C8.78368 7.54914 8.50118 7.84973 8.20089 8.07422C7.90085 8.29846 7.53615 8.48166 7.17257 8.54395L7.17062 8.54492L3.98117 9.0791C3.05009 9.23561 2.64667 9.62307 2.53781 9.9668C2.4284 10.3124 2.53622 10.8669 3.20382 11.54L5.68332 14.041C5.96769 14.3278 6.16491 14.7202 6.27511 15.1084C6.38539 15.497 6.42388 15.9336 6.33664 16.3262L6.33566 16.3291L5.6257 19.4238C5.35592 20.5997 5.59577 21.1673 5.86203 21.3633C6.1258 21.5573 6.73089 21.6176 7.76144 21.001L10.7517 19.2158L10.7546 19.2139C11.1239 18.9973 11.5769 18.9033 12.0017 18.9033C12.4259 18.9034 12.8778 18.9971 13.2439 19.2158L16.2331 21L16.4226 21.1084C17.3451 21.6106 17.892 21.5476 18.1374 21.3672C18.4012 21.1731 18.6403 20.6074 18.3698 19.4238L17.6599 16.3291L17.6589 16.3262C17.5717 15.9337 17.6092 15.4969 17.7194 15.1084C17.8297 14.7201 18.0277 14.3279 18.3122 14.041L20.7917 11.54L20.7927 11.5391C21.4647 10.8661 21.5713 10.3123 21.4616 9.96777C21.3519 9.62362 20.9451 9.23568 20.0134 9.0791L16.8239 8.54492C16.4557 8.48302 16.0881 8.2991 15.7859 8.07422C15.4846 7.85 15.2033 7.55103 15.0388 7.21387L13.279 3.66602C12.8392 2.77463 12.344 2.5 11.9958 2.5Z" fill="#6A7282"/>
</g>
<defs>
<clipPath id="clip0_2159_9641">
<rect width="22" height="22" fill="white" transform="translate(1 1)"/>
</clipPath>
</defs>
</svg>
