<svg width="24" height="24" viewBox="0 0 24 24" fill="none" xmlns="http://www.w3.org/2000/svg">
<g clip-path="url(#clip0_2159_9674)">
<path d="M13.2967 9.96965V3.01652C13.2966 2.74206 13.1533 2.58436 13.0194 2.52727C12.8965 2.475 12.7477 2.48687 12.618 2.65324L5.61996 11.6366C5.4873 11.807 5.46741 12.0366 5.54574 12.2323C5.62395 12.4276 5.76325 12.5146 5.90023 12.5146H9.30453C10.1322 12.5149 10.703 13.2526 10.703 14.0302V20.9823C10.703 21.2571 10.8463 21.4155 10.9803 21.4726C11.1032 21.5248 11.252 21.513 11.3817 21.3466L18.3797 12.3632C18.5124 12.1929 18.5323 11.9632 18.4539 11.7675C18.3757 11.5722 18.2365 11.4853 18.0995 11.4853H14.6952C13.8674 11.485 13.2967 10.7472 13.2967 9.96965ZM14.2967 9.96965C14.2967 10.3128 14.5306 10.4849 14.6952 10.4853H18.0995C18.7357 10.4853 19.1891 10.9129 19.3827 11.3964C19.5758 11.8794 19.5466 12.4923 19.1688 12.9775L12.1707 21.9609C11.7532 22.4967 11.1146 22.6171 10.5877 22.3925C10.0721 22.1726 9.70297 21.6434 9.70297 20.9823V14.0302C9.70297 13.687 9.46909 13.5149 9.30453 13.5146H5.90023C5.26401 13.5146 4.81052 13.0869 4.61703 12.6034C4.42387 12.1205 4.45312 11.5076 4.8309 11.0224L11.8289 2.03899C12.2464 1.50307 12.8851 1.38278 13.412 1.60735C13.9275 1.82718 14.2965 2.35575 14.2967 3.01652V9.96965Z" fill="#6A7282"/>
</g>
<defs>
<clipPath id="clip0_2159_9674">
<rect width="16" height="22" fill="white" transform="translate(4 1)"/>
</clipPath>
</defs>
</svg>
