<svg width="24" height="24" viewBox="0 0 24 24" fill="none" xmlns="http://www.w3.org/2000/svg">
<g clip-path="url(#clip0_2159_9606)">
<path d="M2.51953 12.4051V15.0476C2.51953 18.5211 2.51953 20.2578 3.59862 21.337C4.67769 22.416 6.41445 22.416 9.88795 22.416H14.0985C17.572 22.416 19.3087 22.416 20.3878 21.337C21.4669 20.2578 21.4669 18.5211 21.4669 15.0476V12.4051C21.4669 10.6353 21.4669 9.75047 21.0923 8.98449C20.7176 8.21851 20.0192 7.67526 18.6223 6.58876L16.517 4.95133C14.3438 3.26112 13.2573 2.41602 11.9932 2.41602C10.7291 2.41602 9.64257 3.26112 7.46945 4.95133L5.36417 6.58876C3.96725 7.67526 3.26878 8.21851 2.89416 8.98449C2.51953 9.75047 2.51953 10.6353 2.51953 12.4051Z" stroke="#6A7282" stroke-linecap="round" stroke-linejoin="round"/>
</g>
<defs>
<clipPath id="clip0_2159_9606">
<rect width="20" height="22" fill="white" transform="translate(2 1)"/>
</clipPath>
</defs>
</svg>
