<svg width="24" height="24" viewBox="0 0 24 24" fill="none" xmlns="http://www.w3.org/2000/svg">
<g clip-path="url(#clip0_4172_17400)">
<path d="M18.6493 15.0841C18.4533 15.2787 18.4521 15.5953 18.6466 15.7912C18.8412 15.9872 19.1578 15.9884 19.3537 15.7939L19.0015 15.439L18.6493 15.0841ZM21.1065 12.955L21.5136 13.2453L21.5136 13.2453L21.1065 12.955ZM21.1065 11.045L21.5136 10.7547L21.5136 10.7547L21.1065 11.045ZM8.82628 4.94273C8.56365 5.02805 8.41991 5.31013 8.50523 5.57276C8.59055 5.83539 8.87263 5.97913 9.13526 5.89381L8.98077 5.41827L8.82628 4.94273ZM6.58949 7.16196C6.81843 7.00756 6.87886 6.69679 6.72446 6.46785C6.57006 6.23891 6.25929 6.17848 6.03035 6.33288L6.30992 6.74742L6.58949 7.16196ZM2.01854 11.045L2.42562 11.3353L2.42563 11.3353L2.01854 11.045ZM2.01854 12.955L2.42563 12.6647L2.42562 12.6647L2.01854 12.955ZM17.0947 17.6671C17.3236 17.5128 17.384 17.202 17.2296 16.973C17.0753 16.7441 16.7645 16.6837 16.5355 16.8381L16.8151 17.2526L17.0947 17.6671ZM9.7739 10.3536C9.96917 10.1583 9.96918 9.84172 9.77392 9.64646C9.57867 9.45119 9.26208 9.45118 9.06682 9.64644L9.42036 10L9.7739 10.3536ZM13.9161 14.4956C14.1113 14.3003 14.1113 13.9838 13.916 13.7885C13.7207 13.5933 13.4042 13.5933 13.2089 13.7886L13.5625 14.1421L13.9161 14.4956ZM2.91605 2.64645C2.72079 2.45118 2.40421 2.45118 2.20895 2.64645C2.01368 2.84171 2.01368 3.15829 2.20895 3.35355L2.5625 3L2.91605 2.64645ZM20.2089 21.3536C20.4042 21.5488 20.7208 21.5488 20.9161 21.3536C21.1113 21.1583 21.1113 20.8417 20.9161 20.6464L20.5625 21L20.2089 21.3536ZM19.0015 15.439L19.3537 15.7939C20.3035 14.8511 21.0354 13.9157 21.5136 13.2453L21.1065 12.955L20.6994 12.6647C20.2446 13.3025 19.5487 14.1913 18.6493 15.0841L19.0015 15.439ZM21.1065 12.955L21.5136 13.2453C21.7909 12.8565 22.0625 12.5065 22.0625 12H21.5625H21.0625C21.0625 12.1245 21.0301 12.2009 20.6994 12.6647L21.1065 12.955ZM21.5625 12H22.0625C22.0625 11.4935 21.7909 11.1435 21.5136 10.7547L21.1065 11.045L20.6994 11.3353C21.0301 11.7991 21.0625 11.8755 21.0625 12H21.5625ZM21.1065 11.045L21.5136 10.7547C20.8153 9.77557 19.5695 8.2225 17.8883 6.91004C16.2082 5.59839 14.0577 4.5 11.5625 4.5V5V5.5C13.7565 5.5 15.6949 6.46633 17.273 7.69829C18.85 8.92944 20.0316 10.3989 20.6994 11.3353L21.1065 11.045ZM11.5625 5V4.5C10.5971 4.5 9.68218 4.66468 8.82628 4.94273L8.98077 5.41827L9.13526 5.89381C9.90162 5.64484 10.7123 5.5 11.5625 5.5V5ZM6.30992 6.74742L6.03035 6.33288C3.94339 7.74036 2.41354 9.62995 1.61145 10.7547L2.01854 11.045L2.42563 11.3353C3.19576 10.2554 4.64397 8.47404 6.58949 7.16196L6.30992 6.74742ZM2.01854 11.045L1.61146 10.7547C1.33416 11.1435 1.0625 11.4935 1.0625 12H1.5625H2.0625C2.0625 11.8755 2.09486 11.7991 2.42562 11.3353L2.01854 11.045ZM1.5625 12H1.0625C1.0625 12.5065 1.33416 12.8565 1.61146 13.2453L2.01854 12.955L2.42562 12.6647C2.09486 12.2009 2.0625 12.1245 2.0625 12H1.5625ZM2.01854 12.955L1.61145 13.2453C2.3097 14.2244 3.55551 15.7775 5.23665 17.09C6.91678 18.4016 9.06726 19.5 11.5625 19.5V19V18.5C9.36852 18.5 7.43005 17.5337 5.85202 16.3017C4.275 15.0706 3.09344 13.6012 2.42563 12.6647L2.01854 12.955ZM11.5625 19V19.5C13.6814 19.5 15.5519 18.7075 17.0947 17.6671L16.8151 17.2526L16.5355 16.8381C15.1033 17.8039 13.4252 18.5 11.5625 18.5V19ZM9.42036 10L9.06682 9.64644C8.44683 10.2664 8.0625 11.1244 8.0625 12.0711H8.5625H9.0625C9.0625 11.4002 9.33383 10.7936 9.7739 10.3536L9.42036 10ZM8.5625 12.0711H8.0625C8.0625 13.9648 9.59766 15.5 11.4914 15.5V15V14.5C10.1499 14.5 9.0625 13.4126 9.0625 12.0711H8.5625ZM11.4914 15V15.5C12.4381 15.5 13.2961 15.1157 13.9161 14.4956L13.5625 14.1421L13.2089 13.7886C12.7689 14.2287 12.1623 14.5 11.4914 14.5V15ZM2.5625 3L2.20895 3.35355L20.2089 21.3536L20.5625 21L20.9161 20.6464L2.91605 2.64645L2.5625 3Z" fill="#6A7282"/>
</g>
<defs>
<clipPath id="clip0_4172_17400">
<rect width="22" height="20" fill="white" transform="translate(1 2)"/>
</clipPath>
</defs>
</svg>
