<svg width="24" height="24" viewBox="0 0 24 24" fill="none" xmlns="http://www.w3.org/2000/svg">
<g clip-path="url(#clip0_2159_9689)">
<path d="M21.5 8.46192C21.5 6.92577 21.4986 5.8201 21.3936 4.97852C21.2898 4.14775 21.0926 3.64986 20.7549 3.28613C20.422 2.9278 19.974 2.72249 19.2197 2.61328C18.447 2.50144 17.4292 2.5 16 2.5H12C10.5708 2.5 9.55305 2.50145 8.78027 2.61328C8.02602 2.72249 7.57795 2.92781 7.24512 3.28613C6.90738 3.64986 6.71016 4.14775 6.60645 4.97852C6.50138 5.8201 6.5 6.92577 6.5 8.46192V9.53809C6.5 11.0742 6.50139 12.1799 6.60645 13.0215C6.71016 13.8522 6.90739 14.3502 7.24512 14.7139C7.57795 15.0722 8.02603 15.2775 8.78027 15.3867C9.55305 15.4986 10.5708 15.5 12 15.5H16C17.4292 15.5 18.447 15.4986 19.2197 15.3867C19.974 15.2775 20.422 15.0722 20.7549 14.7139C21.0926 14.3502 21.2898 13.8522 21.3936 13.0215C21.4986 12.1799 21.5 11.0742 21.5 9.53809V8.46192ZM22.5 9.53809C22.5 11.048 22.5013 12.2275 22.3867 13.1455C22.2708 14.0743 22.0283 14.811 21.4873 15.3936C20.9415 15.9814 20.2428 16.2496 19.3633 16.377C18.5023 16.5016 17.3989 16.5 16 16.5H12C10.6011 16.5 9.49775 16.5016 8.63672 16.377C7.75725 16.2496 7.05852 15.9814 6.5127 15.3936C5.97175 14.811 5.72924 14.0743 5.61328 13.1455C5.49868 12.2275 5.5 11.048 5.5 9.53809V8.46192C5.5 6.95206 5.49868 5.77248 5.61328 4.85449C5.72924 3.92571 5.97177 3.18899 6.5127 2.60645C7.05852 2.01864 7.75725 1.75039 8.63672 1.62305C9.49775 1.49841 10.6011 1.5 12 1.5H16C17.3989 1.5 18.5023 1.49841 19.3633 1.62305C20.2428 1.75039 20.9415 2.01864 21.4873 2.60645C22.0282 3.18899 22.2708 3.92571 22.3867 4.85449C22.5013 5.77248 22.5 6.95206 22.5 8.46192V9.53809Z" fill="#6A7282"/>
<path d="M1.5 15.5303V14.4512C1.5 12.9394 1.49869 11.7589 1.61328 10.8398C1.72921 9.91009 1.971 9.17202 2.51172 8.58887C3.30675 7.73164 4.43331 7.55039 5.98438 7.5L6 8L6.0166 8.5C4.46052 8.55056 3.73282 8.74271 3.24512 9.26856C2.90721 9.6329 2.71019 10.1318 2.60645 10.9639C2.50139 11.8066 2.5 12.9133 2.5 14.4512V15.5303C2.5 17.0682 2.50138 18.1749 2.60645 19.0176C2.71019 19.8496 2.9072 20.3485 3.24512 20.7129C3.57805 21.0718 4.02595 21.2774 4.78027 21.3867C5.55313 21.4987 6.57144 21.5 8.00098 21.5H12.001C13.4305 21.5 14.4488 21.4988 15.2217 21.3867C15.976 21.2774 16.4239 21.0718 16.7568 20.7129C17.0527 20.3938 17.2406 19.9721 17.3525 19.3154C17.4664 18.6472 17.4939 17.782 17.5 16.6055L18 16.6084L18.5 16.6104C18.494 17.7794 18.4674 18.7231 18.3379 19.4834C18.2064 20.2551 17.9617 20.8831 17.4893 21.3926C16.9435 21.9809 16.2447 22.2485 15.3652 22.376C14.504 22.5008 13.4001 22.5 12.001 22.5H8.00098C6.60182 22.5 5.49792 22.5008 4.63672 22.376C3.75708 22.2485 3.05753 21.9811 2.51172 21.3926C1.97099 20.8094 1.72922 20.0713 1.61328 19.1416C1.49869 18.2226 1.5 17.042 1.5 15.5303Z" fill="#6A7282"/>
</g>
<defs>
<clipPath id="clip0_2159_9689">
<rect width="22" height="21" fill="white" transform="translate(1 1.5)"/>
</clipPath>
</defs>
</svg>
