<svg width="24" height="24" viewBox="0 0 24 24" fill="none" xmlns="http://www.w3.org/2000/svg">
<g clip-path="url(#clip0_2159_9698)">
<path d="M18.5 2.89434C18.5 2.31304 18.0418 1.93421 17.5918 2.01251C15.4282 2.38993 14.1604 3.64948 13.4229 4.83086C13.0525 5.42418 12.8183 5.99539 12.6768 6.41778C12.6063 6.62821 12.5592 6.80032 12.5303 6.91778C12.5159 6.97625 12.5061 7.02153 12.5 7.05059V18.9774C12.553 18.8908 12.6085 18.8032 12.667 18.7156C13.5913 17.3314 15.2117 15.8662 17.9453 15.5623C18.2779 15.5253 18.5 15.268 18.5 15.0066V2.89434ZM19.5 15.0066C19.5 15.8488 18.8207 16.4714 18.0557 16.5565C15.6756 16.821 14.2955 18.0771 13.498 19.2713C13.0966 19.8726 12.8431 20.4592 12.6904 20.8953C12.6143 21.1129 12.5633 21.2919 12.5322 21.4139C12.5167 21.4747 12.5065 21.5214 12.5 21.5516C12.4968 21.5664 12.4945 21.5772 12.4932 21.5838C12.4925 21.587 12.4924 21.5896 12.4922 21.5906L12.4658 21.6815C12.3868 21.8857 12.1806 22.0192 11.9551 21.9988C11.6974 21.9756 11.5 21.7595 11.5 21.5008V7.00079L11.5078 6.9129V6.91094C11.508 6.90977 11.5085 6.9078 11.5088 6.90606C11.5094 6.9026 11.5106 6.89799 11.5117 6.89239C11.5139 6.88101 11.5173 6.86529 11.5215 6.84551C11.5298 6.80586 11.5423 6.74983 11.5596 6.6795C11.5942 6.53867 11.6483 6.33978 11.7285 6.1004C11.8886 5.62258 12.1539 4.97648 12.5752 4.30157C13.4213 2.94628 14.9069 1.46554 17.4199 1.02715C18.6019 0.821168 19.5 1.82048 19.5 2.89434V15.0066Z" fill="#6A7282"/>
<path d="M5.81543 4.01153C8.22319 4.11739 10.5265 5.03752 12.3301 6.62579C12.4379 6.72071 12.5 6.85716 12.5 7.00079V21.5008C12.5 21.6973 12.3851 21.8759 12.2061 21.9568C12.027 22.0377 11.8174 22.0056 11.6699 21.8758C9.93073 20.3442 7.67365 19.4976 5.33399 19.5008C4.56031 19.5008 3.9543 19.5013 3.50098 19.4725C3.07154 19.4451 2.66895 19.3884 2.37598 19.201C2.2587 19.1259 2.15183 19.0491 2.05176 18.949C1.95169 18.8489 1.87485 18.7421 1.79981 18.6248C1.61991 18.3437 1.55826 17.9988 1.5293 17.6307C1.49982 17.2556 1.5 16.7706 1.5 16.1639V7.90411C1.5 7.20585 1.49889 6.62384 1.5752 6.1463C1.65576 5.6423 1.82662 5.21826 2.18555 4.83966C2.89273 4.09389 3.67015 4.07412 4.75586 4.01641C4.94688 4.00626 5.13953 4.0008 5.33301 4.00079L5.81543 4.01153ZM2.5 16.1639C2.5 16.7878 2.50068 17.226 2.52637 17.5525C2.55258 17.8857 2.60075 18.0218 2.6416 18.0858C2.69911 18.1756 2.73162 18.2148 2.75879 18.242C2.78596 18.2692 2.82518 18.3017 2.91504 18.3592C2.96745 18.3925 3.12792 18.4466 3.56445 18.4744C3.97828 18.5008 4.545 18.5008 5.33301 18.5008L5.81543 18.5115C7.86796 18.6018 9.8441 19.2844 11.5 20.4676V7.23223C9.78484 5.79223 7.59876 4.99762 5.33399 5.00079C5.15829 5.00079 4.98279 5.00526 4.80957 5.01446C3.64848 5.07618 3.30136 5.11662 2.91113 5.52813C2.72179 5.72798 2.61908 5.95041 2.5625 6.3045C2.50165 6.6855 2.5 7.17468 2.5 7.90411V16.1639Z" fill="#6A7282"/>
<path d="M21.5 16.1649V7.90509C21.5 7.17563 21.4984 6.68648 21.4375 6.30548C21.3809 5.95137 21.2782 5.72896 21.0889 5.52911C20.9008 5.33076 20.6677 5.21156 20.3311 5.13555C19.977 5.05562 19.5475 5.03032 18.9736 4.99981C18.6979 4.98516 18.4864 4.75011 18.501 4.47442C18.5156 4.19872 18.7507 3.9872 19.0264 4.00177C19.5759 4.03098 20.0983 4.05758 20.5518 4.15997C21.0226 4.26633 21.4539 4.4604 21.8145 4.84063L21.9404 4.98516C22.2147 5.32676 22.3543 5.70636 22.4248 6.14727C22.5011 6.62481 22.5 7.20683 22.5 7.90509V16.1649C22.5 16.7719 22.5002 17.2574 22.4707 17.6326C22.4454 17.9545 22.3952 18.2583 22.2627 18.5174L22.2002 18.6258C22.1252 18.743 22.0483 18.8499 21.9482 18.95C21.8482 19.0501 21.7414 19.1269 21.624 19.202C21.3311 19.3894 20.9284 19.4461 20.499 19.4734C20.0457 19.5023 19.4407 19.5018 18.667 19.5018C16.3273 19.4985 14.0693 20.3452 12.3301 21.8768C12.1228 22.0592 11.8075 22.0391 11.625 21.8318C11.4426 21.6246 11.4627 21.3092 11.6699 21.1268C13.5936 19.4327 16.0859 18.4983 18.667 18.5018L19.6914 18.4988C19.9833 18.4955 20.2286 18.4886 20.4355 18.4754C20.8723 18.4476 21.0327 18.3934 21.085 18.3602C21.1748 18.3027 21.214 18.2702 21.2412 18.243C21.2684 18.2158 21.3009 18.1766 21.3584 18.0867C21.3993 18.0226 21.4474 17.8864 21.4736 17.5535C21.4993 17.2269 21.5 16.7888 21.5 16.1649Z" fill="#6A7282"/>
</g>
<defs>
<clipPath id="clip0_2159_9698">
<rect width="22" height="22" fill="white" transform="translate(1 1)"/>
</clipPath>
</defs>
</svg>
