<svg width="24" height="24" viewBox="0 0 24 24" fill="none" xmlns="http://www.w3.org/2000/svg">
<g clip-path="url(#clip0_2159_9692)">
<path d="M21.5 12C21.5 6.75329 17.2467 2.5 12 2.5C6.75329 2.5 2.5 6.75329 2.5 12C2.5 17.2467 6.75329 21.5 12 21.5C17.2467 21.5 21.5 17.2467 21.5 12ZM22.5 12C22.5 17.799 17.799 22.5 12 22.5C6.20101 22.5 1.5 17.799 1.5 12C1.5 6.20101 6.20101 1.5 12 1.5C17.799 1.5 22.5 6.20101 22.5 12Z" fill="#6A7282"/>
<path d="M9.5 11.1998V12.8002C9.5 14.3195 9.5 15.0791 9.95576 15.3862C10.4115 15.6932 11.0348 15.3535 12.2815 14.6741L13.7497 13.8738C15.2499 13.0562 16 12.6474 16 12C16 11.3526 15.2499 10.9438 13.7497 10.1262L12.2815 9.32594C11.0348 8.6465 10.4115 8.30678 9.95576 8.61382C9.5 8.92086 9.5 9.6805 9.5 11.1998Z" fill="#6A7282"/>
</g>
<defs>
<clipPath id="clip0_2159_9692">
<rect width="22" height="21" fill="white" transform="translate(1 1.5)"/>
</clipPath>
</defs>
</svg>
