<svg width="24" height="24" viewBox="0 0 24 24" fill="none" xmlns="http://www.w3.org/2000/svg">
<path d="M19.5 15.5C19.5 14.3961 19.3822 13.3048 19.2363 12.2217C19.0424 10.7827 17.8508 9.66455 16.417 9.59863C15.0084 9.53389 13.5771 9.5 12 9.5C10.4229 9.5 8.99162 9.53389 7.58301 9.59863C6.14929 9.66455 4.95758 10.7827 4.76367 12.2217C4.61783 13.3048 4.5 14.3961 4.5 15.5C4.5 16.6039 4.61783 17.6952 4.76367 18.7783C4.95758 20.2173 6.14928 21.3355 7.58301 21.4014C8.99163 21.4661 10.4229 21.5 12 21.5C13.5771 21.5 15.0084 21.4661 16.417 21.4014C17.8508 21.3355 19.0424 20.2173 19.2363 18.7783C19.3822 17.6952 19.5 16.6039 19.5 15.5ZM20.5 15.5C20.5 16.6712 20.3753 17.8143 20.2275 18.9111C19.9715 20.8126 18.3962 22.3115 16.4629 22.4004C15.0385 22.4658 13.592 22.5 12 22.5C10.408 22.5 8.96145 22.4658 7.53711 22.4004C5.6039 22.3115 4.02847 20.8126 3.77246 18.9111C3.62478 17.8143 3.5 16.6712 3.5 15.5C3.5 14.3288 3.62478 13.1857 3.77246 12.0889C4.02847 10.1874 5.60389 8.68849 7.53711 8.59961C8.96146 8.53414 10.408 8.5 12 8.5C13.592 8.5 15.0385 8.53414 16.4629 8.59961C18.3962 8.68849 19.9715 10.1874 20.2275 12.0889C20.3753 13.1857 20.5 14.3288 20.5 15.5Z" fill="#6A7282"/>
<path d="M16 9V6.5C16 4.29086 14.2092 2.5 12 2.5C9.79086 2.5 8 4.29086 8 6.5V9C8 9.27614 7.77614 9.5 7.5 9.5C7.22386 9.5 7 9.27614 7 9V6.5C7 3.73858 9.23858 1.5 12 1.5C14.7614 1.5 17 3.73858 17 6.5V9C17 9.27614 16.7761 9.5 16.5 9.5C16.2239 9.5 16 9.27614 16 9Z" fill="#6A7282"/>
</svg>
