<svg width="24" height="24" viewBox="0 0 24 24" fill="none" xmlns="http://www.w3.org/2000/svg">
<g clip-path="url(#clip0_2159_9662)">
<path d="M7.24316 4.09953C8.06135 3.86768 8.92381 4.05909 9.92578 4.48527C10.9285 4.91182 12.1687 5.61811 13.7725 6.52922C15.4319 7.47193 16.715 8.19991 17.623 8.8632C18.5297 9.52548 19.1524 10.185 19.374 11.0263C19.5419 11.6641 19.5419 12.3357 19.374 12.9736C19.1524 13.8149 18.5297 14.4744 17.623 15.1366C16.715 15.7999 15.4319 16.5279 13.7725 17.4706C12.1687 18.3817 10.9285 19.088 9.92578 19.5146C8.92382 19.9408 8.06136 20.1322 7.24316 19.9003C6.62223 19.7242 6.05715 19.3902 5.60156 18.9306C5.0027 18.3264 4.74639 17.4772 4.62305 16.3876C4.49958 15.2966 4.5 13.8588 4.5 11.9999C4.5 10.141 4.49958 8.70327 4.62305 7.61222C4.74639 6.52267 5.0027 5.67347 5.60156 5.06925C6.05711 4.60973 6.62218 4.27557 7.24316 4.09953ZM5.5 11.9999C5.5 13.8833 5.50066 15.2529 5.61621 16.2743C5.73195 17.297 5.95424 17.866 6.31152 18.2265C6.64651 18.5645 7.06172 18.8095 7.5166 18.9384C7.9997 19.0752 8.59623 18.9926 9.53418 18.5937C10.4714 18.195 11.6529 17.5249 13.2783 16.6015C14.9596 15.6463 16.1825 14.9504 17.0332 14.329C17.8853 13.7066 18.2752 13.2202 18.4072 12.7187C18.5312 12.2477 18.5312 11.7521 18.4072 11.2812C18.2752 10.7797 17.8852 10.2932 17.0332 9.67082C16.1825 9.04942 14.9596 8.35352 13.2783 7.39836C11.6529 6.47493 10.4714 5.80484 9.53418 5.40617C8.59625 5.00723 7.99971 4.92468 7.5166 5.06144C7.06179 5.19032 6.64654 5.43536 6.31152 5.77336C5.95424 6.13383 5.73195 6.70279 5.61621 7.7255C5.50066 8.74691 5.5 10.1165 5.5 11.9999Z" fill="#6A7282"/>
</g>
<defs>
<clipPath id="clip0_2159_9662">
<rect width="16" height="17" fill="white" transform="translate(4 3.5)"/>
</clipPath>
</defs>
</svg>
