<svg width="24" height="24" viewBox="0 0 24 24" fill="none" xmlns="http://www.w3.org/2000/svg">
<g clip-path="url(#clip0_2159_9659)">
<path d="M16.7454 8.06898C16.983 7.92848 17.2903 8.00721 17.4309 8.24476C17.5714 8.4824 17.4927 8.78972 17.2551 8.93031L14.3128 10.6696C13.4463 11.1818 12.7452 11.4996 12.0003 11.4996C11.2553 11.4996 10.5542 11.1818 9.68776 10.6696L6.74538 8.93031C6.50782 8.78972 6.4291 8.4824 6.56959 8.24476C6.71018 8.00721 7.0175 7.92848 7.25514 8.06898L10.1965 9.80824C11.0453 10.3101 11.5449 10.4996 12.0003 10.4996C12.4557 10.4996 12.9552 10.3101 13.804 9.80824L16.7454 8.06898Z" fill="#6A7282"/>
<path d="M9.08619 3.03672C11.035 2.98776 12.9654 2.98775 14.9143 3.03672C16.4735 3.0759 17.6979 3.1055 18.6712 3.27501C19.6667 3.44845 20.45 3.77501 21.1096 4.43711C21.7675 5.0974 22.0921 5.87026 22.262 6.84825C22.4276 7.80233 22.4523 8.99592 22.4846 10.5133C22.5006 11.2577 22.5043 11.999 22.4963 12.7418L22.4846 13.4859C22.4523 15.0033 22.4276 16.1969 22.262 17.151C22.0921 18.129 21.7675 18.9018 21.1096 19.5621C20.45 20.2243 19.6668 20.5518 18.6712 20.7252C17.6979 20.8947 16.4735 20.9233 14.9143 20.9625C12.9654 21.0115 11.035 21.0115 9.08619 20.9625C7.52735 20.9233 6.30354 20.8946 5.33033 20.7252C4.33454 20.5518 3.55062 20.2244 2.89088 19.5621C2.23308 18.9018 1.90837 18.129 1.73853 17.151C1.5729 16.1969 1.54824 15.0033 1.51588 13.4859C1.49471 12.4931 1.49471 11.5061 1.51588 10.5133C1.54824 8.99593 1.5729 7.80233 1.73853 6.84825C1.90837 5.87028 2.23309 5.0974 2.89088 4.43711C3.55063 3.77489 4.33454 3.44745 5.33033 3.27403C6.30354 3.10461 7.52735 3.07589 9.08619 3.03672ZM14.8889 4.03575C12.9568 3.9872 11.0437 3.98721 9.11158 4.03575C7.52242 4.07567 6.38488 4.10549 5.50123 4.25938C4.64024 4.40934 4.07116 4.67016 3.59986 5.14317C3.12652 5.61831 2.86952 6.1805 2.72389 7.01915C2.57414 7.88158 2.54888 8.98698 2.51588 10.5348C2.49501 11.5133 2.49501 12.486 2.51588 13.4645C2.54889 15.0123 2.57414 16.1176 2.72389 16.9801C2.86952 17.8187 3.12653 18.3809 3.59986 18.8561L3.7815 19.024C4.21796 19.3927 4.74795 19.6087 5.50123 19.7398C6.38488 19.8937 7.52241 19.9236 9.11158 19.9635C11.0437 20.0121 12.9568 20.0121 14.8889 19.9635C16.4781 19.9236 17.6156 19.8937 18.4993 19.7398C19.3603 19.5899 19.9294 19.3291 20.4006 18.8561L20.5686 18.6734C20.9369 18.2361 21.1492 17.7139 21.2766 16.9801C21.4264 16.1176 21.4517 15.0123 21.4846 13.4645C21.5056 12.4859 21.5056 11.5132 21.4846 10.5348C21.4517 8.98693 21.4264 7.88159 21.2766 7.01915C21.131 6.1805 20.874 5.61831 20.4006 5.14317C19.9294 4.67015 19.3603 4.40934 18.4993 4.25938C17.6156 4.10549 16.4781 4.07568 14.8889 4.03575Z" fill="#6A7282"/>
</g>
<defs>
<clipPath id="clip0_2159_9659">
<rect width="22" height="18" fill="white" transform="translate(1 3)"/>
</clipPath>
</defs>
</svg>
