<svg width="24" height="24" viewBox="0 0 24 24" fill="none" xmlns="http://www.w3.org/2000/svg">
<path d="M2.50002 15.5C2.50002 15.2239 2.72388 15 3.00002 15C3.27616 15 3.50002 15.2239 3.50002 15.5C3.50002 16.9316 3.50524 17.5368 3.65041 18.0156C3.98974 19.1343 4.86581 20.0103 5.98439 20.3496C6.46327 20.4947 7.06854 20.5 8.50002 20.5C8.77616 20.5 9.00002 20.7239 9.00002 21C9.00002 21.2762 8.77616 21.5 8.50002 21.5C7.14083 21.5 6.35002 21.5058 5.69338 21.3067C4.25535 20.8704 3.12968 19.7446 2.69338 18.3067C2.49418 17.65 2.50002 16.8592 2.50002 15.5ZM20.5 15.5C20.5 15.2239 20.7239 15 21 15C21.2762 15 21.5 15.2239 21.5 15.5C21.5 16.8593 21.5058 17.65 21.3067 18.3067C20.8704 19.7446 19.7446 20.8704 18.3067 21.3067C17.65 21.5058 16.8593 21.5 15.5 21.5C15.2239 21.5 15 21.2762 15 21C15 20.7239 15.2239 20.5 15.5 20.5C16.9316 20.5 17.5368 20.4948 18.0156 20.3496C19.1342 20.0103 20.0103 19.1342 20.3496 18.0156C20.4948 17.5368 20.5 16.9316 20.5 15.5ZM2.50002 8.50002C2.50002 7.14083 2.49418 6.35004 2.69338 5.69338C3.12968 4.25535 4.25535 3.12968 5.69338 2.69338C6.35004 2.49418 7.14083 2.50002 8.50002 2.50002C8.77616 2.50002 9.00002 2.72388 9.00002 3.00002C9.00002 3.27616 8.77616 3.50002 8.50002 3.50002C7.06851 3.50002 6.46326 3.50525 5.98439 3.65041C4.86579 3.98973 3.98973 4.86579 3.65041 5.98439C3.50525 6.46326 3.50002 7.06851 3.50002 8.50002C3.50002 8.77616 3.27616 9.00002 3.00002 9.00002C2.72388 9.00002 2.50002 8.77616 2.50002 8.50002ZM20.5 8.50002C20.5 7.06854 20.4947 6.46327 20.3496 5.98439C20.0103 4.86581 19.1343 3.98974 18.0156 3.65041C17.5368 3.50524 16.9316 3.50002 15.5 3.50002C15.2239 3.50002 15 3.27616 15 3.00002C15 2.72388 15.2239 2.50002 15.5 2.50002C16.8592 2.50002 17.65 2.49418 18.3067 2.69338C19.7446 3.12968 20.8704 4.25535 21.3067 5.69338C21.5058 6.35002 21.5 7.14083 21.5 8.50002C21.5 8.77616 21.2762 9.00002 21 9.00002C20.7239 9.00002 20.5 8.77616 20.5 8.50002Z" fill="#6A7282"/>
</svg>
