<svg width="24" height="24" viewBox="0 0 24 24" fill="none" xmlns="http://www.w3.org/2000/svg">
<g clip-path="url(#clip0_2159_9629)">
<path d="M21.5 10.5538C21.5 9.53991 21.495 9.13644 21.4053 8.81939C21.1688 7.98408 20.5159 7.33123 19.6807 7.09478C19.3636 7.00508 18.9602 7.00005 17.9463 7.00005C17.5983 7.00005 17.3637 7.00184 17.1407 6.96294C16.613 6.87087 16.129 6.6116 15.7598 6.22369C15.668 6.12723 15.5402 5.94753 15.4317 5.79107C15.3135 5.62071 15.185 5.42882 15.084 5.2774C14.6678 4.6531 14.5202 4.44409 14.333 4.30279C14.2089 4.2092 14.0714 4.13527 13.9248 4.08404C13.7035 4.00666 13.4476 4.00005 12.6973 4.00005H11.3028C10.5525 4.00005 10.2966 4.00665 10.0752 4.08404C9.92862 4.1353 9.79099 4.20924 9.66702 4.30279C9.52659 4.40878 9.4085 4.55298 9.18264 4.88189L8.91604 5.2774C8.81509 5.42884 8.68653 5.62071 8.56838 5.79107C8.45986 5.94754 8.33201 6.12726 8.24026 6.22369C7.87098 6.61159 7.38701 6.87088 6.8594 6.96294C6.63629 7.00183 6.40177 7.00005 6.05374 7.00005C5.03988 7.00005 4.63641 7.00508 4.31936 7.09478C3.48408 7.33123 2.8312 7.9841 2.59475 8.81939C2.50505 9.13643 2.50003 9.53989 2.50003 10.5538V14.5001C2.50003 15.9284 2.50118 16.9498 2.60549 17.7256C2.70789 18.4869 2.90155 18.9367 3.23245 19.2676C3.56334 19.5985 4.01319 19.7922 4.77444 19.8946C5.55032 19.9989 6.57168 20.0001 8.00003 20.0001H16C17.4284 20.0001 18.4497 19.9989 19.2256 19.8946C19.9868 19.7922 20.4367 19.5985 20.7676 19.2676C21.0985 18.9367 21.2922 18.4869 21.3946 17.7256C21.4989 16.9498 21.5 15.9284 21.5 14.5001V10.5538ZM22.5 14.5001C22.5 15.9001 22.5011 17.0005 22.3858 17.8585C22.2685 18.7308 22.0224 19.4269 21.4746 19.9747C20.9269 20.5224 20.2308 20.7685 19.3584 20.8858C18.5004 21.0011 17.4001 21.0001 16 21.0001H8.00003C6.59997 21.0001 5.49962 21.0011 4.64163 20.8858C3.76925 20.7685 3.07314 20.5224 2.52542 19.9747C1.9777 19.4269 1.73157 18.7308 1.61428 17.8585C1.49893 17.0005 1.50003 15.9001 1.50003 14.5001V10.5538C1.50003 9.60784 1.49486 9.03116 1.63186 8.54693C1.96289 7.37753 2.87752 6.46389 4.0469 6.13286C4.53114 5.99586 5.10782 6.00005 6.05374 6.00005C6.43764 6.00005 6.56975 5.99812 6.68753 5.97759C7.00417 5.92232 7.29505 5.76708 7.51663 5.53423C7.51683 5.53401 7.51761 5.53336 7.51858 5.53228C7.51981 5.5309 7.52135 5.52888 7.52346 5.52642C7.52808 5.52103 7.53367 5.51312 7.54104 5.50396C7.55598 5.48538 7.5751 5.46168 7.5967 5.43267C7.63993 5.3746 7.69117 5.30237 7.7471 5.22173C7.8591 5.06024 7.982 4.87573 8.08401 4.72271L8.34573 4.33208C8.59138 3.97262 8.79839 3.70577 9.06448 3.50494C9.27122 3.34889 9.50063 3.22519 9.74514 3.1397C10.1646 2.99309 10.624 3.00005 11.3028 3.00005H12.6973C13.3761 3.00005 13.8355 2.99309 14.2549 3.1397C14.4995 3.22521 14.7289 3.34896 14.9356 3.50494C15.2902 3.77261 15.5395 4.1579 15.916 4.72271C16.0181 4.87575 16.141 5.06024 16.253 5.22173C16.3089 5.30237 16.3601 5.3746 16.4033 5.43267C16.4249 5.46168 16.4441 5.48538 16.459 5.50396C16.4664 5.51312 16.472 5.52104 16.4766 5.52642C16.4787 5.52889 16.4802 5.5309 16.4815 5.53228C16.4825 5.5334 16.4832 5.53404 16.4834 5.53423C16.705 5.76706 16.9958 5.92232 17.3125 5.97759C17.4302 5.99812 17.5624 6.00005 17.9463 6.00005C18.8923 6.00005 19.4689 5.99489 19.9531 6.13189C21.1225 6.46292 22.0371 7.37756 22.3682 8.54693C22.5052 9.03116 22.5 9.60781 22.5 10.5538V14.5001Z" fill="#6A7282"/>
<path d="M15.5 13.0001C15.5 11.0671 13.933 9.50005 12 9.50005C10.067 9.50006 8.50003 11.0671 8.50003 13.0001C8.50003 14.933 10.067 16.5 12 16.5001C13.933 16.5001 15.5 14.933 15.5 13.0001ZM16.5 13.0001C16.5 15.4853 14.4853 17.5001 12 17.5001C9.51473 17.5 7.50003 15.4853 7.50003 13.0001C7.50003 10.5148 9.51473 8.50006 12 8.50005C14.4853 8.50005 16.5 10.5148 16.5 13.0001Z" fill="#6A7282"/>
</g>
<defs>
<clipPath id="clip0_2159_9629">
<rect width="22" height="19" fill="white" transform="translate(1 2.5)"/>
</clipPath>
</defs>
</svg>
