<svg width="24" height="24" viewBox="0 0 24 24" fill="none" xmlns="http://www.w3.org/2000/svg">
<g clip-path="url(#clip0_2159_9680)">
<path d="M1.5 11.9999C1.5 7.845 4.95792 4.49995 9.19434 4.49995H16.9551C17.05 4.49995 17.1339 4.49853 17.208 4.49799C17.159 4.44969 17.1051 4.39443 17.043 4.33393L16.04 3.35834C15.8421 3.16578 15.8377 2.84924 16.0303 2.65131C16.2228 2.45349 16.5394 2.44902 16.7373 2.64155L17.7402 3.61713C17.9521 3.82328 18.1521 4.01648 18.2812 4.18354C18.3823 4.31433 18.5512 4.5689 18.4873 4.87592L18.4443 5.01069C18.2913 5.37013 17.933 5.44688 17.7461 5.4726C17.5354 5.50158 17.2556 5.49995 16.9551 5.49995H9.19434C5.48423 5.49995 2.5 8.42291 2.5 11.9999C2.5 13.3783 2.94178 14.6565 3.69629 15.7089C3.85678 15.9333 3.80517 16.2454 3.58105 16.4062C3.35663 16.5671 3.04371 16.5154 2.88281 16.291C2.01184 15.0759 1.5 13.5958 1.5 11.9999Z" fill="#6A7282"/>
<path d="M21.5 11.9999C21.5 10.6216 21.0582 9.34347 20.3037 8.29096C20.1432 8.06663 20.1948 7.75453 20.4189 7.5937C20.6434 7.43281 20.9563 7.4845 21.1172 7.70893C21.9881 8.92402 22.5 10.404 22.5 11.9999C22.5 16.1549 19.042 19.4999 14.8057 19.4999H7.04492C6.94959 19.4999 6.8654 19.5004 6.79101 19.5009C6.84026 19.5495 6.89444 19.605 6.95703 19.666L7.95996 20.6415C8.15788 20.8341 8.16229 21.1507 7.96973 21.3486C7.77715 21.5464 7.46059 21.5509 7.26269 21.3583L6.25976 20.3828C6.04792 20.1766 5.84788 19.9834 5.71875 19.8164C5.60321 19.6669 5.39965 19.3557 5.55566 18.9892C5.70875 18.6298 6.06693 18.553 6.2539 18.5273C6.46456 18.4983 6.74446 18.4999 7.04492 18.4999H14.8057C18.5157 18.4999 21.5 15.577 21.5 11.9999Z" fill="#6A7282"/>
</g>
<defs>
<clipPath id="clip0_2159_9680">
<rect width="22" height="19" fill="white" transform="translate(1 2.5)"/>
</clipPath>
</defs>
</svg>
