<svg width="24" height="24" viewBox="0 0 24 24" fill="none" xmlns="http://www.w3.org/2000/svg">
<path d="M11.5 15.0002V3.00021C11.5 2.72406 11.7239 2.50021 12 2.50021C12.2761 2.50021 12.5 2.72406 12.5 3.00021V15.0002C12.5 15.2763 12.2761 15.5002 12 15.5002C11.7239 15.5002 11.5 15.2763 11.5 15.0002Z" fill="#6A7282"/>
<path d="M11.7246 2.58224C11.9187 2.45407 12.1827 2.47583 12.3535 2.64669L17.3535 7.64669C17.5488 7.84195 17.5488 8.15846 17.3535 8.35372C17.1583 8.54899 16.8417 8.54899 16.6465 8.35372L12 3.70724L7.35352 8.35372C7.15825 8.54899 6.84175 8.54899 6.64648 8.35372C6.45122 8.15846 6.45122 7.84195 6.64648 7.64669L11.6465 2.64669L11.7246 2.58224Z" fill="#6A7282"/>
<path d="M2.5 19.0002V15.0002C2.5 14.7241 2.72386 14.5002 3 14.5002C3.27614 14.5002 3.5 14.7241 3.5 15.0002V19.0002L3.50781 19.1486C3.54195 19.4919 3.69337 19.8147 3.93945 20.0608C4.22076 20.3421 4.60218 20.5002 5 20.5002H19C19.3978 20.5002 19.7792 20.3421 20.0605 20.0608C20.3419 19.7794 20.5 19.398 20.5 19.0002V15.0002C20.5 14.7241 20.7239 14.5002 21 14.5002C21.2761 14.5002 21.5 14.7241 21.5 15.0002V19.0002C21.5 19.6632 21.2364 20.2989 20.7676 20.7678C20.2987 21.2366 19.663 21.5002 19 21.5002H5C4.33696 21.5002 3.70126 21.2366 3.23242 20.7678C2.76358 20.2989 2.5 19.6632 2.5 19.0002Z" fill="#6A7282"/>
</svg>
