<svg width="24" height="24" viewBox="0 0 24 24" fill="none" xmlns="http://www.w3.org/2000/svg">
<path opacity="0.4" d="M14.8955 4.35798C17.2377 4.60748 19.0624 6.59025 19.0625 8.99861C19.0624 10.7561 18.0896 12.2849 16.6543 13.0806C19.0365 13.9904 20.7292 16.2959 20.7295 18.9976C20.7295 19.2737 20.5055 19.4975 20.2295 19.4976C19.9534 19.4976 19.7295 19.2738 19.7295 18.9976C19.7291 16.2212 17.6071 13.9403 14.8965 13.6881C14.6215 13.6625 14.3965 13.4408 14.3965 13.1646C14.3966 12.8885 14.6219 12.6687 14.8955 12.6314C16.6841 12.3878 18.0623 10.854 18.0625 8.99861C18.0624 7.14314 16.6841 5.60957 14.8955 5.3658C14.6219 5.32854 14.3965 5.10773 14.3965 4.83162C14.3966 4.55565 14.6211 4.32893 14.8955 4.35798Z" fill="#6A7282"/>
<path d="M9.39648 4.33203C11.9735 4.33238 14.0625 6.42191 14.0625 8.99902C14.0624 10.7565 13.0896 12.2853 11.6543 13.0811C14.0366 13.9908 15.7292 16.2962 15.7295 18.998C15.7295 19.2741 15.5055 19.4979 15.2295 19.498C14.9534 19.498 14.7295 19.2742 14.7295 18.998C14.7291 16.0529 12.3416 13.6652 9.39648 13.665C6.45133 13.6652 4.06285 16.0529 4.0625 18.998C4.0625 19.2742 3.83864 19.498 3.5625 19.498C3.28636 19.498 3.0625 19.2742 3.0625 18.998C3.06277 16.2967 4.75497 13.9911 7.13672 13.0811C5.70153 12.2853 4.72961 10.7563 4.72949 8.99902C4.72949 6.4217 6.81916 4.33203 9.39648 4.33203ZM9.39648 5.33203C7.37144 5.33203 5.72949 6.97398 5.72949 8.99902C5.72967 11.0239 7.37155 12.665 9.39648 12.665C11.4211 12.6647 13.0623 11.0237 13.0625 8.99902C13.0625 6.9742 11.4212 5.33238 9.39648 5.33203Z" fill="#6A7282"/>
</svg>
