<svg width="24" height="24" viewBox="0 0 24 24" fill="none" xmlns="http://www.w3.org/2000/svg">
<path d="M16.3065 16.3065C16.5017 16.1112 16.8183 16.1112 17.0135 16.3065L21.3534 20.6463C21.5486 20.8416 21.5486 21.1581 21.3534 21.3534C21.1581 21.5486 20.8416 21.5486 20.6463 21.3534L16.3065 17.0135C16.1112 16.8183 16.1112 16.5017 16.3065 16.3065Z" fill="#6A7282"/>
<path d="M18.5 11C18.5 6.85786 15.1421 3.5 11 3.5C6.85786 3.5 3.5 6.85786 3.5 11C3.5 15.1421 6.85786 18.5 11 18.5C15.1421 18.5 18.5 15.1421 18.5 11ZM19.5 11C19.5 15.6944 15.6944 19.5 11 19.5C6.30558 19.5 2.5 15.6944 2.5 11C2.5 6.30558 6.30558 2.5 11 2.5C15.6944 2.5 19.5 6.30558 19.5 11Z" fill="#6A7282"/>
</svg>
