<svg width="24" height="24" viewBox="0 0 24 24" fill="none" xmlns="http://www.w3.org/2000/svg">
<g clip-path="url(#clip0_2159_9683)">
<path d="M1.5 12C1.5 6.20101 6.20101 1.5 12 1.5C12.7185 1.5 13.4208 1.57217 14.0996 1.70996C14.3702 1.76495 14.5452 2.02922 14.4902 2.2998C14.4352 2.57029 14.1709 2.74535 13.9004 2.69043C13.2868 2.56587 12.6513 2.5 12 2.5C6.75329 2.5 2.5 6.75329 2.5 12C2.5 17.2467 6.75329 21.5 12 21.5C17.2467 21.5 21.5 17.2467 21.5 12C21.5 11.3487 21.4341 10.7133 21.3096 10.0996C21.2547 9.82909 21.4298 9.56482 21.7002 9.50977C21.9708 9.45487 22.2351 9.62987 22.29 9.90039C22.4277 10.5791 22.5 11.2815 22.5 12C22.5 17.7989 17.7989 22.5 12 22.5C6.20101 22.5 1.5 17.7989 1.5 12ZM6.5 12C6.5 8.96244 8.96244 6.5 12 6.5C12.2761 6.5 12.5 6.72386 12.5 7C12.5 7.27614 12.2761 7.5 12 7.5C9.51472 7.5 7.5 9.51472 7.5 12C7.5 14.4853 9.51472 16.5 12 16.5C14.4853 16.5 16.5 14.4853 16.5 12C16.5 11.7239 16.7239 11.5 17 11.5C17.2761 11.5 17.5 11.7239 17.5 12C17.5 15.0375 15.0375 17.5 12 17.5C8.96244 17.5 6.5 15.0375 6.5 12ZM18.1094 1.72949C18.6318 1.30259 19.3652 1.53126 19.6201 2.0918L19.665 2.20898L19.6689 2.22363L20.1436 3.92871L21.7441 4.32422C21.7505 4.32579 21.7574 4.32826 21.7637 4.33008C22.4293 4.52269 22.7242 5.34223 22.2588 5.9043C21.7003 6.57869 20.9919 7.40229 20.0586 7.87988C19.1473 8.34617 18.0617 8.46464 16.7627 7.93555L12.3838 12.3164C12.1886 12.5113 11.872 12.5114 11.6768 12.3164C11.4815 12.1211 11.4815 11.8037 11.6768 11.6084L16.0791 7.20508C15.5679 5.98877 15.6609 4.93361 16.0967 4.02832C16.5594 3.06738 17.3873 2.31953 18.1094 1.72949ZM18.7148 2.52637C18.0113 3.10342 17.3516 3.72568 16.9971 4.46191C16.6727 5.13569 16.5867 5.9425 17.0723 6.97949C18.1469 7.43707 18.949 7.32514 19.6035 6.99023C20.3229 6.6221 20.9077 5.96502 21.4707 5.28613L19.6201 4.83008C19.4451 4.78673 19.3071 4.65221 19.2588 4.47852L18.7148 2.52637Z" fill="#6A7282"/>
</g>
<defs>
<clipPath id="clip0_2159_9683">
<rect width="22" height="21" fill="white" transform="translate(1 1.5)"/>
</clipPath>
</defs>
</svg>
