<svg width="24" height="24" viewBox="0 0 24 24" fill="none" xmlns="http://www.w3.org/2000/svg">
<g clip-path="url(#clip0_4172_17429)">
<path d="M15.7895 11.5263C15.7895 11.5263 12.9985 7.73685 12 7.73684C11.0014 7.73683 8.21053 11.5263 8.21053 11.5263M12 8.21053V16.2632M3 12C3 7.75736 3 5.63604 4.31802 4.31802C5.63604 3 7.75736 3 12 3C16.2426 3 18.3639 3 19.682 4.31802C21 5.63604 21 7.75736 21 12C21 16.2426 21 18.3639 19.682 19.682C18.3639 21 16.2426 21 12 21C7.75736 21 5.63604 21 4.31802 19.682C3 18.3639 3 16.2426 3 12Z" stroke="#6A7282" stroke-linecap="round" stroke-linejoin="round"/>
</g>
<defs>
<clipPath id="clip0_4172_17429">
<rect width="20" height="20" fill="white" transform="translate(2 2)"/>
</clipPath>
</defs>
</svg>
