<svg width="24" height="24" viewBox="0 0 24 24" fill="none" xmlns="http://www.w3.org/2000/svg">
<g clip-path="url(#clip0_2159_9677)">
<path d="M12.0003 4.5C12.4899 4.5 12.9455 4.7588 13.1917 5.18359L15.4066 9.00391C15.7871 9.66029 16.0473 10.1079 16.2865 10.415C16.5167 10.7106 16.6789 10.8112 16.8373 10.8486C16.9957 10.886 17.1856 10.8683 17.5238 10.707C17.8751 10.5394 18.3078 10.2555 18.9417 9.83887L20.1742 9.0293C20.766 8.64031 21.5541 8.71637 22.0589 9.21387C22.4614 9.61072 22.6045 10.2012 22.4232 10.7373L22.4212 10.7422L20.1751 17.1562C20.0091 17.6307 19.8717 18.0265 19.723 18.335C19.5687 18.6548 19.3819 18.926 19.0931 19.1309C18.8043 19.3357 18.4861 19.422 18.1332 19.4619C17.793 19.5003 17.3747 19.5 16.8724 19.5H7.12827C6.62595 19.5 6.20769 19.5003 5.86753 19.4619C5.51458 19.422 5.19637 19.3357 4.90756 19.1309C4.61882 18.926 4.43195 18.6548 4.27768 18.335C4.12892 18.0265 3.99162 17.6307 3.82553 17.1562L1.57944 10.7422L1.57749 10.7373C1.39619 10.2012 1.53921 9.61071 1.94174 9.21387C2.44661 8.71634 3.23464 8.64031 3.82651 9.0293L5.05796 9.83887C5.69198 10.2556 6.12554 10.5394 6.4769 10.707C6.8151 10.8683 7.00505 10.886 7.16342 10.8486C7.3218 10.8112 7.48396 10.7106 7.71421 10.415C7.9534 10.1079 8.21362 9.6603 8.59409 9.00391L10.8089 5.18359C11.0552 4.7588 11.5108 4.5 12.0003 4.5ZM12.0003 5.5C11.8628 5.5 11.7392 5.57259 11.6742 5.68457L9.45932 9.50488C9.09339 10.1362 8.79448 10.6554 8.50327 11.0293C8.20325 11.4145 7.86406 11.7101 7.39389 11.8213C6.9235 11.9324 6.48708 11.8196 6.04624 11.6094C5.61855 11.4053 5.11875 11.0755 4.50913 10.6748L3.27671 9.86523C3.07737 9.73428 2.81161 9.76079 2.64389 9.92578C2.51343 10.0544 2.46789 10.2419 2.5228 10.4111L4.76889 16.8262C4.94247 17.322 5.05953 17.6546 5.17807 17.9004C5.29102 18.1346 5.3847 18.2437 5.48569 18.3154C5.58676 18.3871 5.72127 18.4395 5.97983 18.4688C6.25093 18.4994 6.60328 18.5 7.12827 18.5H16.8724C17.3974 18.5 17.7497 18.4994 18.0208 18.4688C18.2794 18.4395 18.4139 18.3871 18.515 18.3154C18.616 18.2437 18.7097 18.1346 18.8226 17.9004C18.9411 17.6546 19.0582 17.322 19.2318 16.8262L21.4769 10.4111C21.532 10.2418 21.4873 10.0545 21.3568 9.92578C21.1891 9.76081 20.9233 9.73431 20.724 9.86523L19.4915 10.6748C18.8819 11.0755 18.3821 11.4053 17.9544 11.6094C17.5136 11.8196 17.0772 11.9324 16.6068 11.8213C16.1366 11.7101 15.7974 11.4145 15.4974 11.0293C15.2062 10.6554 14.9073 10.1362 14.5414 9.50488L12.3265 5.68457C12.2615 5.57259 12.1379 5.5 12.0003 5.5Z" fill="#6A7282"/>
</g>
<defs>
<clipPath id="clip0_2159_9677">
<rect width="22" height="15" fill="white" transform="translate(1 4.5)"/>
</clipPath>
</defs>
</svg>
