<svg width="24" height="24" viewBox="0 0 24 24" fill="none" xmlns="http://www.w3.org/2000/svg">
<path d="M11.5 19.002V5C11.5 4.72386 11.7239 4.5 12 4.5C12.2762 4.5 12.5 4.72386 12.5 5V19.002L12.4903 19.1025C12.4438 19.3305 12.2418 19.502 12 19.502C11.7583 19.502 11.5563 19.3305 11.5098 19.1025L11.5 19.002Z" fill="#6A7282"/>
<path d="M19.001 11.502C19.2771 11.502 19.501 11.7258 19.501 12.002C19.501 12.2781 19.2771 12.502 19.001 12.502H4.99902C4.72288 12.502 4.49902 12.2781 4.49902 12.002C4.49902 11.7258 4.72288 11.502 4.99902 11.502H19.001Z" fill="#6A7282"/>
</svg>
