<svg width="24" height="24" viewBox="0 0 24 24" fill="none" xmlns="http://www.w3.org/2000/svg">
<path d="M12.001 4.5C14.2287 4.50009 16.4064 5.16134 18.2578 6.40039C19.9936 7.56214 21.3692 9.183 22.2344 11.0781L22.4004 11.4609L22.4072 11.4775C22.5322 11.8143 22.5322 12.1848 22.4072 12.5215C22.4051 12.527 22.4026 12.5326 22.4004 12.5381C21.5509 14.5976 20.1092 16.3585 18.2578 17.5977C16.4064 18.8368 14.2288 19.4989 12.001 19.499C9.77298 19.499 7.59469 18.8369 5.74315 17.5977C3.89173 16.3585 2.45001 14.5976 1.60057 12.5381C1.59831 12.5326 1.5958 12.527 1.59373 12.5215C1.46874 12.1848 1.46877 11.8143 1.59373 11.4775L1.60057 11.4609C2.45002 9.40125 3.8916 7.63961 5.74315 6.40039C7.59466 5.16124 9.77305 4.5 12.001 4.5ZM12.001 5.5C9.97121 5.5 7.98665 6.10258 6.29979 7.23145C4.61782 8.35717 3.30607 9.95576 2.53123 11.8252C2.48987 11.9366 2.48951 12.0593 2.53026 12.1709C3.30496 14.0415 4.61703 15.6404 6.29979 16.7666C7.98672 17.8956 9.97108 18.499 12.001 18.499C14.0307 18.4989 16.0144 17.8955 17.7012 16.7666C19.3838 15.6404 20.695 14.0413 21.4697 12.1709C21.5106 12.0592 21.5111 11.9367 21.4697 11.8252C20.6948 9.95591 19.383 8.35709 17.7012 7.23145C16.0144 6.10268 14.0305 5.50009 12.001 5.5Z" fill="#6A7282"/>
<path d="M14.5005 11.9994C14.5005 10.6187 13.3812 9.49938 12.0005 9.49938C10.6198 9.49938 9.50049 10.6187 9.50049 11.9994C9.50049 13.3801 10.6198 14.4994 12.0005 14.4994C13.3812 14.4994 14.5005 13.3801 14.5005 11.9994ZM15.5005 11.9994C15.5005 13.9324 13.9335 15.4994 12.0005 15.4994C10.0675 15.4994 8.50049 13.9324 8.50049 11.9994C8.50049 10.0664 10.0675 8.49938 12.0005 8.49938C13.9335 8.49938 15.5005 10.0664 15.5005 11.9994Z" fill="#6A7282"/>
</svg>
