<svg width="24" height="24" viewBox="0 0 24 24" fill="none" xmlns="http://www.w3.org/2000/svg">
<g clip-path="url(#clip0_2159_9665)">
<path d="M9.5 7C9.5 6.27885 9.4986 5.78829 9.44922 5.4209C9.40176 5.06787 9.31832 4.90425 9.20703 4.79297C9.09575 4.68168 8.93213 4.59825 8.5791 4.55078C8.21171 4.5014 7.72115 4.5 7 4.5C6.27885 4.5 5.78829 4.5014 5.4209 4.55078C5.06787 4.59825 4.90425 4.68168 4.79297 4.79297C4.68168 4.90425 4.59825 5.06787 4.55078 5.4209C4.5014 5.78829 4.5 6.27885 4.5 7V17C4.5 17.7212 4.5014 18.2117 4.55078 18.5791C4.59824 18.9321 4.68168 19.0957 4.79297 19.207C4.90425 19.3183 5.06786 19.4018 5.4209 19.4492C5.7883 19.4986 6.27885 19.5 7 19.5C7.72115 19.5 8.2117 19.4986 8.5791 19.4492C8.93214 19.4018 9.09575 19.3183 9.20703 19.207C9.31832 19.0957 9.40176 18.9321 9.44922 18.5791C9.4986 18.2117 9.5 17.7212 9.5 17V7ZM10.5 17C10.5 17.693 10.5009 18.2634 10.4404 18.7129C10.378 19.1767 10.242 19.5861 9.91406 19.9141C9.5861 20.242 9.17664 20.378 8.71289 20.4404C8.26336 20.5009 7.69297 20.5 7 20.5C6.30703 20.5 5.73664 20.5009 5.28711 20.4404C4.82336 20.378 4.4139 20.242 4.08594 19.9141C3.758 19.5861 3.62197 19.1767 3.55957 18.7129C3.49913 18.2634 3.5 17.693 3.5 17V7C3.5 6.30703 3.49913 5.73664 3.55957 5.28711C3.62197 4.82335 3.75797 4.4139 4.08594 4.08594C4.4139 3.75797 4.82335 3.62197 5.28711 3.55957C5.73664 3.49913 6.30703 3.5 7 3.5C7.69297 3.5 8.26336 3.49913 8.71289 3.55957C9.17665 3.62197 9.5861 3.75797 9.91406 4.08594C10.242 4.4139 10.378 4.82335 10.4404 5.28711C10.5009 5.73664 10.5 6.30703 10.5 7V17Z" fill="#6A7282"/>
<path d="M19.5 7C19.5 6.27885 19.4986 5.7883 19.4492 5.4209C19.4018 5.06786 19.3183 4.90425 19.207 4.79297C19.0957 4.68168 18.9321 4.59824 18.5791 4.55078C18.2117 4.5014 17.7212 4.5 17 4.5C16.2789 4.5 15.7883 4.5014 15.4209 4.55078C15.0679 4.59824 14.9043 4.68168 14.793 4.79297C14.6817 4.90425 14.5982 5.06786 14.5508 5.4209C14.5014 5.7883 14.5 6.27885 14.5 7V17C14.5 17.7211 14.5014 18.2117 14.5508 18.5791C14.5982 18.9321 14.6817 19.0957 14.793 19.207C14.9043 19.3183 15.0679 19.4018 15.4209 19.4492C15.7883 19.4986 16.2789 19.5 17 19.5C17.7211 19.5 18.2117 19.4986 18.5791 19.4492C18.9321 19.4018 19.0957 19.3183 19.207 19.207C19.3183 19.0957 19.4018 18.9321 19.4492 18.5791C19.4986 18.2117 19.5 17.7211 19.5 17V7ZM20.5 17C20.5 17.693 20.5009 18.2634 20.4404 18.7129C20.378 19.1766 20.242 19.5861 19.9141 19.9141C19.5861 20.242 19.1766 20.378 18.7129 20.4404C18.2634 20.5009 17.693 20.5 17 20.5C16.307 20.5 15.7366 20.5009 15.2871 20.4404C14.8234 20.378 14.4139 20.242 14.0859 19.9141C13.758 19.5861 13.622 19.1766 13.5596 18.7129C13.4991 18.2634 13.5 17.693 13.5 17V7C13.5 6.30703 13.4991 5.73664 13.5596 5.28711C13.622 4.82336 13.758 4.4139 14.0859 4.08594C14.4139 3.758 14.8233 3.62197 15.2871 3.55957C15.7366 3.49913 16.307 3.5 17 3.5C17.693 3.5 18.2634 3.49913 18.7129 3.55957C19.1767 3.62197 19.5861 3.758 19.9141 4.08594C20.242 4.4139 20.378 4.82336 20.4404 5.28711C20.5009 5.73664 20.5 6.30703 20.5 7V17Z" fill="#6A7282"/>
</g>
<defs>
<clipPath id="clip0_2159_9665">
<rect width="18" height="17" fill="white" transform="translate(3 3.5)"/>
</clipPath>
</defs>
</svg>
