<svg width="24" height="24" viewBox="0 0 24 24" fill="none" xmlns="http://www.w3.org/2000/svg">
<g clip-path="url(#clip0_4214_21007)">
<path d="M3.47368 15.7895L7.70811 11.555C8.0298 11.2334 8.46611 11.0526 8.92105 11.0526C9.376 11.0526 9.81231 11.2334 10.134 11.555L13.8947 15.3158M13.8947 15.3158L15.3158 16.7368M13.8947 15.3158L15.7608 13.4498C16.0824 13.1281 16.5188 12.9474 16.9737 12.9474C17.4286 12.9474 17.865 13.1281 18.1866 13.4498L20.5263 15.7895M12 3C7.99289 3 5.98933 3 4.66051 4.13492C4.47181 4.29608 4.29608 4.47181 4.13492 4.66051C3 5.98933 3 7.99289 3 12C3 16.0071 3 18.0107 4.13492 19.3395C4.29608 19.5282 4.47181 19.7039 4.66051 19.8651C5.98933 21 7.99289 21 12 21C16.0071 21 18.0107 21 19.3395 19.8651C19.5282 19.7039 19.7039 19.5282 19.8651 19.3395C21 18.0107 21 16.0071 21 12M21 6.31579H17.6842M17.6842 6.31579H14.3684M17.6842 6.31579V3M17.6842 6.31579V9.63158" stroke="#6A7282" stroke-linecap="round" stroke-linejoin="round"/>
</g>
<defs>
<clipPath id="clip0_4214_21007">
<rect width="19" height="22" fill="white" transform="translate(2.5 1)"/>
</clipPath>
</defs>
</svg>
