<svg width="24" height="24" viewBox="0 0 24 24" fill="none" xmlns="http://www.w3.org/2000/svg">
<path d="M2.5 12.9971C2.5 11.1251 2.49938 9.67071 2.65137 8.54004C2.80532 7.39496 3.12398 6.50688 3.81836 5.8125C4.39233 5.23852 5.09992 4.91923 5.97949 4.73926C6.84548 4.5621 7.90942 4.51426 9.21875 4.5C9.49457 4.49719 9.7204 4.71833 9.72363 4.99414C9.72664 5.2702 9.50552 5.49688 9.22949 5.5C7.92005 5.51426 6.94299 5.56382 6.18066 5.71973C5.43195 5.8729 4.92256 6.12236 4.52539 6.51953C4.04779 6.99713 3.78065 7.63868 3.6416 8.67285C3.50062 9.72144 3.5 11.0967 3.5 12.9971C3.5 14.8975 3.50062 16.2727 3.6416 17.3213C3.78065 18.3555 4.04779 18.997 4.52539 19.4746C5.00299 19.9522 5.64455 20.2194 6.67871 20.3584C7.72731 20.4994 9.10249 20.5 11.0029 20.5C12.9034 20.5 14.2786 20.4994 15.3271 20.3584C16.3613 20.2194 17.0029 19.9522 17.4805 19.4746C17.8777 19.0774 18.1271 18.5683 18.2803 17.8193C18.4362 17.0568 18.4857 16.0795 18.5 14.7695C18.503 14.4934 18.7297 14.2714 19.0059 14.2744C19.2818 14.2776 19.503 14.5043 19.5 14.7803C19.4857 16.0898 19.4378 17.1534 19.2607 18.0195C19.0808 18.8994 18.7616 19.6075 18.1875 20.1816C17.4931 20.876 16.6051 21.1947 15.46 21.3486C14.3293 21.5006 12.875 21.5 11.0029 21.5C9.13088 21.5 7.67658 21.5006 6.5459 21.3486C5.4008 21.1947 4.51274 20.876 3.81836 20.1816C3.12398 19.4873 2.80532 18.5992 2.65137 17.4541C2.49938 16.3234 2.5 14.8691 2.5 12.9971Z" fill="#6A7282"/>
<path d="M20.5 10V6C20.5 5.27885 20.4986 4.7883 20.4492 4.4209C20.4418 4.36544 20.4301 4.31519 20.4209 4.26856C20.4017 4.29853 20.3797 4.32732 20.3535 4.35352L11.3535 13.3535C11.1583 13.5488 10.8417 13.5488 10.6465 13.3535C10.4512 13.1583 10.4512 12.8417 10.6465 12.6465L19.6465 3.64649C19.6726 3.62036 19.7006 3.59726 19.7305 3.57813C19.6841 3.569 19.6341 3.55818 19.5791 3.55078C19.2117 3.5014 18.7211 3.5 18 3.5H14C13.7239 3.5 13.5 3.27614 13.5 3C13.5 2.72386 13.7239 2.5 14 2.5H18C18.693 2.5 19.2634 2.49913 19.7129 2.55957C20.1767 2.62197 20.5861 2.758 20.9141 3.08594C21.242 3.4139 21.378 3.82336 21.4404 4.28711C21.5009 4.73664 21.5 5.30703 21.5 6V10C21.5 10.2761 21.2761 10.5 21 10.5C20.7239 10.5 20.5 10.2761 20.5 10Z" fill="#6A7282"/>
</svg>
