<svg width="24" height="24" viewBox="0 0 24 24" fill="none" xmlns="http://www.w3.org/2000/svg">
<g clip-path="url(#clip0_4177_18208)">
<path d="M19.4375 5.5L18.8178 15.5251C18.6594 18.0864 18.5803 19.3671 17.9383 20.2879C17.6208 20.7431 17.2122 21.1273 16.7382 21.416C15.7796 22 14.4965 22 11.9302 22C9.36062 22 8.0758 22 7.11655 21.4149C6.6423 21.1257 6.2335 20.7408 5.91618 20.2848C5.27438 19.3626 5.19695 18.0801 5.04211 15.5152L4.4375 5.5M2.9375 5.5H20.9375M15.9932 5.5L15.3106 4.09173C14.8571 3.15626 14.6303 2.68852 14.2392 2.39681C14.1525 2.3321 14.0606 2.27454 13.9645 2.2247C13.5314 2 13.0116 2 11.972 2C10.9063 2 10.3735 2 9.93318 2.23412C9.8356 2.28601 9.74248 2.3459 9.65479 2.41317C9.25914 2.7167 9.03813 3.20155 8.59611 4.17126L7.99042 5.5" stroke="#6A7282" stroke-linecap="round"/>
</g>
<defs>
<clipPath id="clip0_4177_18208">
<rect width="20" height="22" fill="white" transform="translate(2 1)"/>
</clipPath>
</defs>
</svg>
