<svg width="24" height="24" viewBox="0 0 24 24" fill="none" xmlns="http://www.w3.org/2000/svg">
<g clip-path="url(#clip0_2159_9626)">
<path d="M18.5 18V9.5C18.5 5.91015 15.5899 3 12 3C8.41015 3 5.5 5.91015 5.5 9.5V18C5.5 18.2761 5.27614 18.5 5 18.5C4.72386 18.5 4.5 18.2761 4.5 18V9.5C4.5 5.35787 7.85787 2 12 2C16.1421 2 19.5 5.35787 19.5 9.5V18C19.5 18.2761 19.2761 18.5 19 18.5C18.7239 18.5 18.5 18.2761 18.5 18Z" fill="#6A7282"/>
<path d="M20.5 17.5C20.7761 17.5 21 17.7239 21 18C21 18.2761 20.7761 18.5 20.5 18.5H3.5C3.22386 18.5 3 18.2761 3 18C3 17.7239 3.22386 17.5 3.5 17.5H20.5Z" fill="#6A7282"/>
<path d="M11 20C11 20.3698 11.2016 20.6912 11.5 20.8643V20H12.5V20.8643C12.7984 20.6912 13 20.3698 13 20H14C14 21.1045 13.1045 22 12 22C10.8955 22 10 21.1045 10 20H11Z" fill="#6A7282"/>
</g>
<defs>
<clipPath id="clip0_2159_9626">
<rect width="18" height="20" fill="white" transform="translate(3 2)"/>
</clipPath>
</defs>
</svg>
