<svg width="24" height="24" viewBox="0 0 24 24" fill="none" xmlns="http://www.w3.org/2000/svg">
<g clip-path="url(#clip0_2159_9686)">
<path d="M21.5 4.5C21.5 3.39543 20.6046 2.5 19.5 2.5H13.5C12.3954 2.5 11.5 3.39543 11.5 4.5V10.5C11.5 11.6046 12.3954 12.5 13.5 12.5H19.5C20.6046 12.5 21.5 11.6046 21.5 10.5V4.5ZM22.5 10.5C22.5 12.1569 21.1569 13.5 19.5 13.5H13.5C11.8431 13.5 10.5 12.1569 10.5 10.5V4.5C10.5 2.84315 11.8431 1.5 13.5 1.5H19.5C21.1569 1.5 22.5 2.84315 22.5 4.5V10.5Z" fill="#6A7282"/>
<path d="M6 12.5005V11.5005C6 10.3361 5.99865 9.41179 6.0957 8.68994C6.19471 7.9539 6.4045 7.35284 6.87891 6.87842C7.31803 6.43947 7.86589 6.22718 8.53027 6.11963C9.18022 6.01443 9.99355 6.0023 10.999 6.00049C11.2751 5.99999 11.4995 6.22341 11.5 6.49951C11.5005 6.77563 11.2771 6.99995 11.001 7.00049C9.97914 7.00233 9.24781 7.01675 8.69043 7.10694C8.14763 7.19479 7.82527 7.3471 7.58594 7.58643C7.32829 7.84415 7.17097 8.19851 7.08692 8.82373C7.00092 9.46344 7 10.3079 7 11.5005V12.5005C7 13.6927 7.00098 14.5367 7.08692 15.1763C7.17099 15.8016 7.32819 16.1568 7.58594 16.4146C7.84364 16.6722 8.1981 16.8295 8.82324 16.9136C9.46297 16.9996 10.3074 17.0005 11.5 17.0005H12.5C13.6926 17.0005 14.537 16.9996 15.1768 16.9136C15.8019 16.8295 16.1563 16.6722 16.4141 16.4146C16.6534 16.1752 16.8057 15.8529 16.8936 15.3101C16.9838 14.7527 16.9982 14.0214 17 12.9995C17.0005 12.7234 17.2248 12.5 17.501 12.5005C17.7769 12.5012 18.0005 12.7255 18 13.0015C17.9982 14.0068 17.986 14.8203 17.8809 15.4702C17.7733 16.1347 17.5602 16.6825 17.1211 17.1216C16.6466 17.596 16.0457 17.8048 15.3096 17.9038C14.5877 18.0008 13.6643 18.0005 12.5 18.0005H11.5C10.3357 18.0005 9.41225 18.0008 8.69043 17.9038C7.95427 17.8048 7.35339 17.596 6.87891 17.1216C6.40443 16.6471 6.19469 16.0463 6.0957 15.3101C5.99866 14.5883 6 13.6647 6 12.5005Z" fill="#6A7282"/>
<path d="M1.5 17.0005V16.0005C1.5 14.8361 1.49865 13.9118 1.5957 13.19C1.69471 12.4539 1.90451 11.8529 2.37891 11.3784L2.54883 11.2241C2.95692 10.888 3.44898 10.7137 4.03027 10.6196C4.68022 10.5144 5.49355 10.5023 6.49902 10.5005C6.77514 10.5 6.99946 10.7234 7 10.9995C7.00049 11.2756 6.77708 11.5 6.50098 11.5005C5.47914 11.5023 4.7478 11.5168 4.19043 11.6069C3.64764 11.6948 3.32527 11.8471 3.08594 12.0864L3.08496 12.0855C2.82732 12.3432 2.67097 12.6985 2.58692 13.3237C2.50092 13.9635 2.5 14.8079 2.5 16.0005V17.0005C2.5 18.1927 2.50098 19.0367 2.58692 19.6763C2.67099 20.3016 2.82819 20.6568 3.08594 20.9146C3.34364 21.1722 3.6981 21.3295 4.32324 21.4136C4.96297 21.4996 5.80736 21.5005 7 21.5005H8C9.19264 21.5005 10.037 21.4996 10.6768 21.4136C11.3019 21.3295 11.6563 21.1722 11.9141 20.9146C12.1534 20.6752 12.3057 20.3529 12.3936 19.8101C12.4838 19.2527 12.4982 18.5214 12.5 17.4995C12.5005 17.2234 12.7248 17 13.001 17.0005C13.2769 17.0012 13.5005 17.2255 13.5 17.5015C13.4982 18.5068 13.486 19.3203 13.3809 19.9702C13.2733 20.6347 13.0602 21.1825 12.6211 21.6216C12.1466 22.096 11.5457 22.3048 10.8096 22.4038C10.0877 22.5008 9.16428 22.5005 8 22.5005H7C5.83572 22.5005 4.91225 22.5008 4.19043 22.4038C3.45427 22.3048 2.85339 22.096 2.37891 21.6216C1.90443 21.1471 1.69469 20.5463 1.5957 19.8101C1.49866 19.0883 1.5 18.1647 1.5 17.0005Z" fill="#6A7282"/>
</g>
<defs>
<clipPath id="clip0_2159_9686">
<rect width="22" height="21.0005" fill="white" transform="translate(1 1.5)"/>
</clipPath>
</defs>
</svg>
