<svg width="24" height="24" viewBox="0 0 24 24" fill="none" xmlns="http://www.w3.org/2000/svg">
<path d="M0.458984 18.209C0.458984 17.9328 0.682842 17.709 0.958984 17.709C1.23513 17.709 1.45898 17.9328 1.45898 18.209C1.45898 20.6943 3.4737 22.709 5.95898 22.709C6.23513 22.709 6.45898 22.9328 6.45898 23.209C6.45898 23.4851 6.23513 23.709 5.95898 23.709C2.92142 23.709 0.458984 21.2465 0.458984 18.209ZM20.459 18.209C20.459 17.9328 20.6828 17.709 20.959 17.709C21.2351 17.709 21.459 17.9328 21.459 18.209C21.459 21.2465 18.9965 23.709 15.959 23.709C15.6828 23.709 15.459 23.4851 15.459 23.209C15.459 22.9328 15.6828 22.709 15.959 22.709C18.4443 22.709 20.459 20.6943 20.459 18.209ZM0.458984 8.20898C0.458984 5.17142 2.92142 2.70898 5.95898 2.70898C6.23513 2.70898 6.45898 2.93284 6.45898 3.20898C6.45898 3.48513 6.23513 3.70898 5.95898 3.70898C3.4737 3.70898 1.45898 5.7237 1.45898 8.20898C1.45898 8.48513 1.23513 8.70898 0.958984 8.70898C0.682842 8.70898 0.458984 8.48513 0.458984 8.20898Z" fill="#6A7282"/>
<path d="M7.87331 10.819C7.87331 11.3619 7.43322 11.802 6.89034 11.802C6.34746 11.802 5.68706 11.3552 5.37753 10.819C5.68706 10.2694 6.34746 9.83606 6.89034 9.83606C7.43322 9.83606 7.87331 10.2762 7.87331 10.819Z" fill="#6A7282"/>
<path d="M16.0534 10.819C16.0534 11.3619 15.6133 11.802 15.0704 11.802C14.5276 11.802 13.8672 11.3552 13.5576 10.819C13.8672 10.2694 14.5276 9.83606 15.0704 9.83606C15.6133 9.83606 16.0534 10.2762 16.0534 10.819Z" fill="#6A7282"/>
<path d="M11.6396 15.8701C12.3617 15.8786 12.7788 16.6038 13.5575 17.0533C13.4151 17.3416 13.1952 17.5983 12.9598 17.813C11.4514 19.3214 10.1769 19.0314 8.95854 17.813C8.72404 17.5992 8.50116 17.3419 8.36083 17.0533C9.2331 16.5497 10.1586 15.2338 10.9592 16.2003C11.0607 16.0777 11.2855 15.866 11.6396 15.8701Z" fill="#6A7282"/>
<path d="M20.245 0.292969C20.245 0.292969 20.6691 0.293022 20.788 0.292969L20.885 0.777605C21.1045 1.87303 21.9607 2.72927 23.0561 2.94869L23.5408 3.04576C23.5408 3.1646 23.5408 3.58874 23.5408 3.58874L23.0561 3.68581C21.9607 3.90523 21.1045 4.76147 20.885 5.8569L20.788 6.34154C20.788 6.34154 20.3638 6.34154 20.245 6.34154L20.1479 5.8569C19.9285 4.76147 19.0722 3.90523 17.9768 3.68581L17.4922 3.58874V3.04576L17.9768 2.94869C19.0722 2.72927 19.9285 1.87303 20.1479 0.777605L20.245 0.292969Z" fill="#6A7282"/>
</svg>
