<svg width="24" height="24" viewBox="0 0 24 24" fill="none" xmlns="http://www.w3.org/2000/svg">
<path d="M12.0047 11.5C12.2808 11.5 12.5047 11.7239 12.5047 12C12.5047 12.2761 12.2808 12.5 12.0047 12.5H11.9959C11.7198 12.5 11.4959 12.2761 11.4959 12C11.4959 11.7239 11.7198 11.5 11.9959 11.5H12.0047Z" fill="#6A7282"/>
<path d="M16.0086 11.5C16.2847 11.5 16.5086 11.7239 16.5086 12C16.5086 12.2761 16.2847 12.5 16.0086 12.5H15.9998C15.7237 12.5 15.4998 12.2761 15.4998 12C15.4998 11.7239 15.7237 11.5 15.9998 11.5H16.0086Z" fill="#6A7282"/>
<path d="M8.0086 11.5C8.28474 11.5 8.5086 11.7239 8.5086 12C8.5086 12.2761 8.28474 12.5 8.0086 12.5H7.99981C7.72367 12.5 7.49981 12.2761 7.49981 12C7.49981 11.7239 7.72367 11.5 7.99981 11.5H8.0086Z" fill="#6A7282"/>
<path d="M21.5 12C21.5 6.75329 17.2467 2.5 12 2.5C6.75329 2.5 2.5 6.75329 2.5 12C2.5 17.2467 6.75329 21.5 12 21.5C17.2467 21.5 21.5 17.2467 21.5 12ZM22.5 12C22.5 17.7989 17.7989 22.5 12 22.5C6.20101 22.5 1.5 17.7989 1.5 12C1.5 6.20101 6.20101 1.5 12 1.5C17.7989 1.5 22.5 6.20101 22.5 12Z" fill="#6A7282"/>
</svg>
