<svg width="24" height="24" viewBox="0 0 24 24" fill="none" xmlns="http://www.w3.org/2000/svg">
<g clip-path="url(#clip0_2159_9623)">
<path d="M19.1095 11.5078C19.1095 10.9163 19.3151 10.2455 19.6485 9.82325L19.6583 9.81055L19.6681 9.79981L20.6993 8.64649L20.7003 8.64552C20.9421 8.3766 21.0945 8.20534 21.1954 8.06348C21.2887 7.93226 21.3069 7.86821 21.3116 7.82325L21.3058 7.73243C21.2974 7.69159 21.2803 7.63771 21.2481 7.56348C21.1789 7.40363 21.0645 7.20419 20.8839 6.89063L20.3907 6.03419C20.1981 5.69986 20.075 5.48754 19.964 5.33887C19.8609 5.2009 19.8011 5.16503 19.7579 5.14747C19.7148 5.12994 19.6472 5.11469 19.4776 5.14161C19.2947 5.17066 19.0584 5.23657 18.6876 5.3418L17.4669 5.68555L17.4434 5.69141C16.8698 5.82369 16.2679 5.74858 15.7442 5.4795L15.7227 5.46778L15.3858 5.27345L15.3663 5.26173C14.9172 4.97412 14.572 4.54986 14.3809 4.05177L14.377 4.042L14.3731 4.03126L14.0392 3.03419C13.9257 2.69329 13.8532 2.47614 13.7804 2.31934C13.7131 2.1745 13.666 2.1276 13.63 2.10157C13.594 2.07566 13.5352 2.04642 13.377 2.02833C13.2058 2.00873 12.9788 2.00782 12.6202 2.00782H11.505C11.1464 2.00782 10.9194 2.00873 10.7481 2.02833C10.5902 2.04641 10.5312 2.07562 10.4952 2.10157C10.4592 2.1276 10.4121 2.17445 10.3448 2.31934C10.272 2.47615 10.1994 2.69229 10.086 3.03321L9.75204 4.03126L9.74814 4.042L9.74423 4.05177C9.55317 4.54986 9.20791 4.97412 8.75888 5.26173L8.73935 5.27345L8.40243 5.46778L8.38095 5.4795C7.85723 5.74856 7.25542 5.82371 6.68173 5.69141L6.65829 5.68555L5.43856 5.3418C5.06769 5.23656 4.83048 5.17066 4.64755 5.14161C4.47792 5.11468 4.41039 5.12993 4.36728 5.14747C4.32409 5.16504 4.26425 5.20093 4.16122 5.33887C4.10568 5.41324 4.0474 5.50371 3.9786 5.6172L3.73446 6.03419L3.2413 6.89063C3.06061 7.2042 2.94627 7.40363 2.87704 7.56348C2.81297 7.71145 2.80885 7.77829 2.81356 7.82325C2.81828 7.86817 2.83648 7.93226 2.92978 8.06348C3.03065 8.20533 3.18309 8.3766 3.42489 8.64552L3.42587 8.64649L4.45712 9.79981L4.46688 9.81055L4.47665 9.82325C4.8102 10.2456 5.01571 10.9164 5.01571 11.5078C5.01569 12.0995 4.81024 12.77 4.47665 13.1924L4.46688 13.2051L4.45712 13.2158L3.42587 14.3691L3.42489 14.3701C3.18311 14.639 3.03065 14.8103 2.92978 14.9522C2.83652 15.0833 2.81829 15.1474 2.81356 15.1924C2.80885 15.2373 2.81298 15.3042 2.87704 15.4522C2.94627 15.612 3.06069 15.8106 3.2413 16.124L3.73446 16.9815C3.92708 17.3157 4.05019 17.5281 4.16122 17.6768C4.26426 17.8147 4.32416 17.8506 4.36728 17.8682C4.41038 17.8857 4.47795 17.901 4.64755 17.874C4.83047 17.845 5.06671 17.7791 5.43759 17.6738L6.65829 17.3301L6.68173 17.3242C7.18397 17.2084 7.70772 17.2514 8.18173 17.4443L8.38095 17.5361L8.40243 17.5479L8.73935 17.7422L8.75888 17.7539C9.15167 18.0056 9.46592 18.3615 9.6661 18.7803L9.74423 18.9639L9.74814 18.9736L9.75204 18.9844L10.086 19.9815C10.1994 20.3224 10.272 20.5395 10.3448 20.6963C10.4121 20.8412 10.4591 20.888 10.4952 20.9141C10.5312 20.94 10.5902 20.9692 10.7481 20.9873C10.9194 21.0069 11.1464 21.0078 11.505 21.0078H12.6202C12.9788 21.0078 13.2058 21.0069 13.377 20.9873C13.5351 20.9692 13.594 20.94 13.63 20.9141C13.6661 20.888 13.713 20.8412 13.7804 20.6963C13.8532 20.5395 13.9257 20.3233 14.0392 19.9824L14.3731 18.9844L14.377 18.9736L14.3809 18.9639C14.5719 18.4657 14.9172 18.0415 15.3663 17.7539L15.3858 17.7422L15.7227 17.5479L15.7442 17.5361C16.2026 17.3007 16.7207 17.2135 17.2276 17.2842L17.4434 17.3242L17.4669 17.3301L18.6866 17.6738C19.0574 17.7791 19.2947 17.845 19.4776 17.874C19.6472 17.9009 19.7148 17.8857 19.7579 17.8682C19.801 17.8507 19.8609 17.8147 19.964 17.6768C20.075 17.5281 20.1981 17.3157 20.3907 16.9815L20.8839 16.124C21.0643 15.8109 21.1789 15.6119 21.2481 15.4522C21.2803 15.378 21.2974 15.324 21.3058 15.2832L21.3116 15.1924C21.3069 15.1474 21.2887 15.0834 21.1954 14.9522C21.0945 14.8103 20.9421 14.6391 20.7003 14.3701L20.6993 14.3691L19.6681 13.2158L19.6583 13.2051L19.6485 13.1924C19.315 12.77 19.1095 12.0995 19.1095 11.5078ZM20.1095 11.5078C20.1095 11.9121 20.2595 12.3483 20.4278 12.5664L21.4434 13.7012L21.7589 14.0566C21.8545 14.1679 21.94 14.2725 22.0108 14.3721C22.1601 14.582 22.2765 14.8097 22.3058 15.0879L22.3126 15.1904C22.318 15.4274 22.2557 15.6427 22.1661 15.8496C22.0689 16.0741 21.9202 16.3305 21.7511 16.624L21.2569 17.4805C21.0765 17.7936 20.9196 18.067 20.7647 18.2744C20.6221 18.4654 20.4566 18.6349 20.2335 18.749L20.1349 18.7949C19.8604 18.9065 19.5893 18.905 19.3204 18.8623C19.0651 18.8217 18.7629 18.7342 18.4161 18.6357L17.21 18.2969C16.8713 18.2209 16.5169 18.2654 16.2071 18.4229L15.9015 18.5986C15.6343 18.7709 15.4287 19.0239 15.3145 19.3213L14.9874 20.2969L14.9884 20.2979C14.8822 20.6169 14.7899 20.8968 14.6876 21.1172C14.5799 21.3491 14.4411 21.5619 14.2159 21.7246C13.9905 21.8874 13.7443 21.9524 13.4903 21.9815C13.2492 22.009 12.9556 22.0078 12.6202 22.0078H11.505C11.1696 22.0078 10.8759 22.009 10.6349 21.9815C10.3808 21.9524 10.1346 21.8873 9.90927 21.7246C9.68409 21.5619 9.54528 21.3491 9.43759 21.1172C9.33526 20.8968 9.24296 20.6169 9.13681 20.2979L8.81064 19.3223L8.76376 19.2119C8.64415 18.9616 8.45678 18.7494 8.22274 18.5986L7.91708 18.4229C7.60718 18.2656 7.25286 18.2206 6.91415 18.2969L5.70907 18.6367L5.7081 18.6357C5.36162 18.7341 5.05985 18.8218 4.80478 18.8623C4.53583 18.905 4.26478 18.9066 3.99032 18.7949C3.7159 18.6834 3.52341 18.4926 3.36044 18.2744C3.20554 18.067 3.04872 17.7937 2.86825 17.4805L2.37411 16.624C2.20497 16.3305 2.05631 16.0741 1.95907 15.8496C1.8567 15.6132 1.7902 15.3661 1.81942 15.0879C1.84865 14.8096 1.96508 14.582 2.11435 14.3721C2.25613 14.1727 2.45527 13.9531 2.68173 13.7012L3.69638 12.5664C3.86486 12.3485 4.01569 11.9125 4.01571 11.5078C4.01571 11.1034 3.86481 10.667 3.69638 10.4492L2.68075 9.31348C2.45483 9.06224 2.25586 8.84255 2.11435 8.64356C1.98364 8.45976 1.87796 8.26234 1.83407 8.0293L1.81942 7.92774C1.79019 7.64949 1.8567 7.40243 1.95907 7.16602C2.05631 6.94149 2.20496 6.68516 2.37411 6.39161L2.86825 5.53516L3.12411 5.09864C3.20527 4.96506 3.28292 4.84404 3.36044 4.74024C3.52337 4.52217 3.71609 4.33226 3.99032 4.22071C4.26479 4.10909 4.53585 4.11063 4.80478 4.15333C5.05979 4.19385 5.36172 4.28062 5.7081 4.37891L6.91415 4.71778C7.2531 4.7941 7.60709 4.74924 7.91708 4.5918L8.22274 4.41602C8.4901 4.2437 8.69644 3.99109 8.81064 3.69337L9.13681 2.71778L9.28915 2.27149C9.33828 2.13412 9.38639 2.00871 9.43759 1.89844C9.54528 1.66653 9.68408 1.45369 9.90927 1.29102C10.1347 1.12827 10.3808 1.06325 10.6349 1.03419C10.876 1.00664 11.1696 1.00782 11.505 1.00782H12.6202C12.9556 1.00782 13.2492 1.00665 13.4903 1.03419C13.7444 1.06325 13.9905 1.12822 14.2159 1.29102C14.4411 1.45368 14.5799 1.66653 14.6876 1.89844C14.7899 2.11885 14.8822 2.39869 14.9884 2.71778L15.3145 3.69337L15.3614 3.80372C15.4809 4.05358 15.668 4.26535 15.9015 4.41602L16.2071 4.5918C16.5169 4.74942 16.8711 4.79386 17.21 4.71778L18.4161 4.37891C18.7628 4.28051 19.0652 4.19389 19.3204 4.15333C19.5893 4.11063 19.8604 4.10909 20.1349 4.22071L20.2345 4.26661C20.457 4.38067 20.6223 4.54959 20.7647 4.74024C20.9197 4.94772 21.0764 5.22184 21.2569 5.53516L21.7511 6.39161C21.9202 6.68518 22.0689 6.94149 22.1661 7.16602C22.2557 7.373 22.318 7.5882 22.3126 7.8252L22.3058 7.92774C22.2765 8.20596 22.1601 8.43366 22.0108 8.64356C21.8692 8.84269 21.6696 9.06104 21.4434 9.31251L21.4444 9.31348L20.4337 10.4424L20.3702 10.5332C20.2267 10.7677 20.1095 11.1505 20.1095 11.5078Z" fill="#6A7282"/>
<path d="M15.0196 11.5C15.0196 9.84316 13.6765 8.50003 12.0196 8.50001C10.3628 8.50001 9.01962 9.84315 9.01962 11.5C9.01962 13.1569 10.3628 14.5 12.0196 14.5C13.6765 14.5 15.0196 13.1569 15.0196 11.5ZM16.0196 11.5C16.0196 13.7091 14.2287 15.5 12.0196 15.5C9.81047 15.5 8.01962 13.7091 8.01962 11.5C8.01962 9.29087 9.81047 7.50001 12.0196 7.50001C14.2287 7.50003 16.0196 9.29088 16.0196 11.5Z" fill="#6A7282"/>
</g>
<defs>
<clipPath id="clip0_2159_9623">
<rect width="22" height="22" fill="white" transform="translate(1 1)"/>
</clipPath>
</defs>
</svg>
