<svg width="24" height="24" viewBox="0 0 24 24" fill="none" xmlns="http://www.w3.org/2000/svg">
<g clip-path="url(#clip0_2159_9695)">
<path d="M7.5 6V2C7.5 1.72386 7.72386 1.5 8 1.5C8.27614 1.5 8.5 1.72386 8.5 2V6C8.5 6.27614 8.27614 6.5 8 6.5C7.72386 6.5 7.5 6.27614 7.5 6ZM15.5 6V2C15.5 1.72386 15.7239 1.5 16 1.5C16.2761 1.5 16.5 1.72386 16.5 2V6C16.5 6.27614 16.2761 6.5 16 6.5C15.7239 6.5 15.5 6.27614 15.5 6Z" fill="#6A7282"/>
<path d="M20.5 12C20.5 10.1004 20.4993 8.7259 20.3584 7.67773C20.2194 6.64394 19.952 6.0028 19.4746 5.52539C18.9972 5.048 18.3561 4.78059 17.3223 4.6416C16.2741 4.50071 14.8996 4.5 13 4.5H11C9.10039 4.5 7.7259 4.50071 6.67773 4.6416C5.64392 4.78059 5.0028 5.04799 4.52539 5.52539C4.04799 6.0028 3.78059 6.64392 3.6416 7.67773C3.50071 8.7259 3.5 10.1004 3.5 12V14C3.5 15.8996 3.50071 17.2741 3.6416 18.3223C3.78059 19.3561 4.048 19.9972 4.52539 20.4746C5.0028 20.952 5.64393 21.2194 6.67773 21.3584C7.7259 21.4993 9.10039 21.5 11 21.5H13C14.8996 21.5 16.2741 21.4993 17.3223 21.3584C18.3561 21.2194 18.9972 20.952 19.4746 20.4746C19.952 19.9972 20.2194 19.3561 20.3584 18.3223C20.4993 17.2741 20.5 15.8996 20.5 14V12ZM21.5 14C21.5 15.8715 21.5006 17.3257 21.3486 18.4561C21.1947 19.6006 20.8757 20.4876 20.1816 21.1816C19.4876 21.8757 18.6006 22.1947 17.4561 22.3486C16.3257 22.5006 14.8715 22.5 13 22.5H11C9.12852 22.5 7.67426 22.5006 6.54395 22.3486C5.39944 22.1947 4.51245 21.8757 3.81836 21.1816C3.12426 20.4876 2.80529 19.6006 2.65137 18.4561C2.4994 17.3257 2.5 15.8715 2.5 14V12C2.5 10.1285 2.4994 8.67426 2.65137 7.54395C2.80529 6.39944 3.12427 5.51245 3.81836 4.81836C4.51245 4.12427 5.39944 3.80529 6.54395 3.65137C7.67426 3.4994 9.12851 3.5 11 3.5H13C14.8715 3.5 16.3257 3.4994 17.4561 3.65137C18.6006 3.80529 19.4876 4.12426 20.1816 4.81836C20.8757 5.51245 21.1947 6.39944 21.3486 7.54395C21.5006 8.67426 21.5 10.1285 21.5 12V14Z" fill="#6A7282"/>
<path d="M21 9.5C21.2761 9.5 21.5 9.72386 21.5 10C21.5 10.2761 21.2761 10.5 21 10.5H3C2.72386 10.5 2.5 10.2761 2.5 10C2.5 9.72386 2.72386 9.5 3 9.5H21Z" fill="#6A7282"/>
<path d="M13 17.5C13.2761 17.5 13.5 17.7239 13.5 18C13.5 18.2761 13.2761 18.5 13 18.5H8C7.72386 18.5 7.5 18.2761 7.5 18C7.5 17.7239 7.72386 17.5 8 17.5H13ZM16 17.5C16.2761 17.5 16.5 17.7239 16.5 18C16.5 18.2761 16.2761 18.5 16 18.5H15.9912C15.7151 18.5 15.4912 18.2761 15.4912 18C15.4912 17.7239 15.7151 17.5 15.9912 17.5H16ZM8.00879 13.5C8.28493 13.5 8.50879 13.7239 8.50879 14C8.50879 14.2761 8.28493 14.5 8.00879 14.5H8C7.72386 14.5 7.5 14.2761 7.5 14C7.5 13.7239 7.72386 13.5 8 13.5H8.00879ZM16 13.5C16.2761 13.5 16.5 13.7239 16.5 14C16.5 14.2761 16.2761 14.5 16 14.5H11C10.7239 14.5 10.5 14.2761 10.5 14C10.5 13.7239 10.7239 13.5 11 13.5H16Z" fill="#6A7282"/>
</g>
<defs>
<clipPath id="clip0_2159_9695">
<rect width="20" height="21" fill="white" transform="translate(2 1.5)"/>
</clipPath>
</defs>
</svg>
