<svg width="24" height="24" viewBox="0 0 24 24" fill="none" xmlns="http://www.w3.org/2000/svg">
<g clip-path="url(#clip0_2159_9638)">
<path d="M12.4486 1.50121C13.1768 1.50257 13.855 1.52463 14.4828 1.56956C14.7581 1.58928 14.9652 1.82849 14.9457 2.10374C14.926 2.37912 14.6869 2.58723 14.4115 2.56761C13.8101 2.52456 13.1546 2.50154 12.4457 2.50023C11.0071 2.49423 9.56945 2.6085 8.14978 2.84105L8.1488 2.84007C6.96708 3.03931 6.60864 3.12297 6.27283 3.53636C5.94031 3.9459 5.9324 4.36148 5.98474 5.68675C6.07528 7.95176 6.37465 10.4343 7.32263 12.3381C7.79271 13.2821 8.41365 14.0674 9.23377 14.6174C10.0505 15.1651 11.0951 15.5002 12.4476 15.5002C13.8003 15.5002 14.8448 15.1643 15.6615 14.6164C16.4814 14.0664 17.1028 13.2821 17.5726 12.3381C18.5202 10.4342 18.819 7.95126 18.9086 5.68675L18.933 4.84886C18.9374 4.15479 18.8698 3.84497 18.6195 3.53734L18.6185 3.53636C18.3549 3.21079 18.0644 3.08271 17.3539 2.94749C17.0826 2.89588 16.9038 2.63381 16.9554 2.36253C17.0072 2.09151 17.2693 1.91357 17.5404 1.96507C18.3112 2.11175 18.9008 2.29602 19.3949 2.9055L19.5033 3.05003C20.0074 3.77555 19.9532 4.59514 19.9076 5.72679C19.8171 8.01506 19.5155 10.6789 18.4681 12.7834C17.9405 13.8436 17.2159 14.7788 16.2191 15.4475C15.2189 16.1184 13.9749 16.5002 12.4476 16.5002C10.9206 16.5002 9.67733 16.1182 8.67712 15.4475C7.6803 14.779 6.95501 13.8444 6.42712 12.7844C5.37922 10.68 5.07721 8.01556 4.98572 5.72679C4.93807 4.52047 4.87935 3.66676 5.49646 2.90648C6.11228 2.14841 6.89221 2.03905 7.98572 1.85472L7.98865 1.85374C9.46257 1.61233 10.9541 1.49407 12.4476 1.50023H12.4496L12.4486 1.50121Z" fill="#6A7282"/>
<path d="M1.94727 8.23576V8.16252C1.94727 7.65301 1.94698 7.22819 1.98633 6.88322C2.02711 6.52584 2.11473 6.20359 2.32422 5.91252C2.53395 5.62128 2.81227 5.43549 3.13867 5.28361C3.45329 5.13726 3.85609 5.00346 4.33984 4.84221L5.28906 4.5258L5.60547 5.47502L4.65625 5.79045C4.15065 5.95898 3.81151 6.07314 3.56055 6.18986C3.3212 6.30123 3.20902 6.39475 3.13574 6.49651C3.06249 6.59826 3.00945 6.73405 2.97949 6.99651C2.94809 7.27178 2.94727 7.63004 2.94727 8.16252V8.23576C2.94727 8.67538 2.94788 8.96901 2.9707 9.19768C2.9924 9.41502 3.03111 9.53268 3.08496 9.62444C3.13885 9.71606 3.22332 9.80711 3.40332 9.93205C3.5924 10.0633 3.84873 10.207 4.2334 10.4213L7.19043 12.0629L6.7041 12.9379L3.74707 11.2953C3.38007 11.0909 3.07209 10.9202 2.83301 10.7543C2.58491 10.5821 2.37672 10.3924 2.22363 10.1322C2.07068 9.87215 2.00562 9.59796 1.97559 9.29729C1.94668 9.00762 1.94727 8.65573 1.94727 8.23576ZM21.9473 8.23576V8.16252C21.9473 7.63004 21.9464 7.27178 21.915 6.99651C21.8851 6.73405 21.832 6.59826 21.7588 6.49651C21.6855 6.39475 21.5733 6.30123 21.334 6.18986C21.2086 6.13155 21.061 6.07425 20.8818 6.01018L20.2383 5.79045L19.2891 5.47502L19.6055 4.5258L20.5547 4.84221C21.0384 5.00346 21.4412 5.13726 21.7559 5.28361C22.0823 5.43549 22.3606 5.62128 22.5703 5.91252C22.7798 6.20359 22.8674 6.52584 22.9082 6.88322C22.9476 7.22819 22.9473 7.65301 22.9473 8.16252V8.23576C22.9473 8.65573 22.9479 9.00762 22.9189 9.29729C22.8889 9.59796 22.8239 9.87215 22.6709 10.1322C22.5178 10.3924 22.3096 10.5821 22.0615 10.7543C21.942 10.8373 21.8051 10.9212 21.6523 11.0102L21.1475 11.2953L18.1904 12.9379L17.7041 12.0629L20.6611 10.4213L21.1494 10.1459C21.2854 10.0668 21.3966 9.99771 21.4912 9.93205C21.6712 9.80711 21.7557 9.71606 21.8096 9.62444C21.8634 9.53268 21.9021 9.41502 21.9238 9.19768C21.9466 8.96901 21.9473 8.67538 21.9473 8.23576Z" fill="#6A7282"/>
<path d="M11.9473 19.0002V17.0002C11.9473 16.7241 12.1715 16.5002 12.4476 16.5002C12.7238 16.5002 12.9473 16.7241 12.9473 17.0002V19.0002C12.9473 19.2764 12.7234 19.5002 12.4473 19.5002C12.1711 19.5002 11.9473 19.2764 11.9473 19.0002Z" fill="#6A7282"/>
<path d="M14.6279 19.0002L14.7568 19.0061C15.0569 19.0322 15.3436 19.1478 15.5781 19.3401C15.8461 19.5599 16.0297 19.8664 16.0976 20.2063L16.4374 21.9016C16.4669 22.0484 16.4287 22.2008 16.3339 22.3166C16.239 22.4325 16.097 22.5002 15.9472 22.5002H8.94721C8.79737 22.5002 8.65546 22.4325 8.56049 22.3166C8.46568 22.2008 8.42754 22.0484 8.45697 21.9016L8.79681 20.2063C8.86476 19.8664 9.04835 19.5599 9.31635 19.3401C9.58421 19.1204 9.92012 19.0005 10.2665 19.0002H14.6279ZM10.1816 20.008C10.0974 20.0228 10.018 20.0588 9.95111 20.1135C9.86178 20.1868 9.79993 20.2893 9.77728 20.4026L9.55756 21.5002H15.3369L15.1171 20.4026C15.0945 20.2893 15.0326 20.1868 14.9433 20.1135C14.8764 20.0588 14.797 20.0228 14.7128 20.008L14.6269 20.0002H10.2675L10.1816 20.008Z" fill="#6A7282"/>
<path d="M18.4472 21.5002C18.7233 21.5002 18.9472 21.7241 18.9472 22.0002C18.9472 22.2764 18.7233 22.5002 18.4472 22.5002H6.44721C6.17106 22.5002 5.94721 22.2764 5.94721 22.0002C5.94721 21.7241 6.17106 21.5002 6.44721 21.5002H18.4472Z" fill="#6A7282"/>
</g>
<defs>
<clipPath id="clip0_2159_9638">
<rect width="22" height="22" fill="white" transform="translate(1 1)"/>
</clipPath>
</defs>
</svg>
