<svg width="24" height="24" viewBox="0 0 24 24" fill="none" xmlns="http://www.w3.org/2000/svg">
<path d="M20.9632 4.00168H16.9714M20.9632 4.00168C20.9632 4.56175 19.472 5.60814 18.9672 6.00128M20.9632 4.00168C20.9632 3.44161 19.472 2.39522 18.9672 2.00208M3 4.00168H6.99179M3 4.00168C3 3.44161 4.49124 2.39522 4.9959 2.00208M3 4.00168C3 4.56175 4.49124 5.60814 4.9959 6.00128M9.81523 21.9987V21.0578C9.81523 20.41 9.60545 19.7795 9.2173 19.2608L5.39492 14.1531C5.07728 13.7285 4.8404 13.2139 4.98626 12.7042C5.34643 11.4456 6.76837 10.3265 8.35932 12.2974L9.95933 14.0046V3.59557C10.0575 1.76671 13.1324 1.18909 13.4502 3.59557V9.52756C14.9327 9.3367 21.9153 10.3784 20.8995 14.7912C20.8509 15.0021 20.8024 15.2161 20.7549 15.4273C20.5485 16.3452 19.94 17.9789 19.2689 18.9342C18.5699 19.9294 18.8964 21.5335 18.8166 22" stroke="#4A5568" stroke-width="0.747369" stroke-linecap="round" stroke-linejoin="round"/>
</svg>
