<svg width="24" height="24" viewBox="0 0 24 24" fill="none" xmlns="http://www.w3.org/2000/svg">
<g clip-path="url(#clip0_2159_9609)">
<path d="M15.6325 8.99902C15.6325 6.97409 13.9913 5.33221 11.9665 5.33203C9.94143 5.33203 8.29948 6.97398 8.29948 8.99902C8.29965 11.0239 9.94154 12.665 11.9665 12.665C13.9912 12.6649 15.6323 11.0238 15.6325 8.99902ZM16.6325 8.99902C16.6323 11.5761 14.5435 13.6649 11.9665 13.665C9.38925 13.665 7.29965 11.5762 7.29948 8.99902C7.29948 6.4217 9.38915 4.33203 11.9665 4.33203C14.5436 4.33221 16.6325 6.4218 16.6325 8.99902Z" fill="#6A7282"/>
<path d="M17.2998 18.9984C17.2996 16.053 14.9119 13.665 11.9665 13.665C9.02121 13.6652 6.63299 16.0531 6.63281 18.9984C6.63281 19.2745 6.40895 19.4984 6.13281 19.4984C5.85667 19.4984 5.63281 19.2745 5.63281 18.9984C5.63299 15.5008 8.46893 12.6652 11.9665 12.665C15.4642 12.665 18.2996 15.5007 18.2998 18.9984C18.2998 19.2744 18.0758 19.4982 17.7998 19.4984C17.5237 19.4984 17.2998 19.2745 17.2998 18.9984Z" fill="#6A7282"/>
</g>
<defs>
<clipPath id="clip0_2159_9609">
<rect width="14" height="16" fill="white" transform="translate(5 4)"/>
</clipPath>
</defs>
</svg>
