<svg width="24" height="24" viewBox="0 0 24 24" fill="none" xmlns="http://www.w3.org/2000/svg">
<g clip-path="url(#clip0_2159_9635)">
<path d="M21.5 8.69434C21.5 6.07461 19.5922 4 17 4C15.6599 4 14.281 4.42606 12.3535 6.35352C12.1583 6.54878 11.8417 6.54878 11.6465 6.35352C9.71903 4.42606 8.34012 4 7 4C4.40779 4 2.50005 6.07461 2.5 8.69434C2.5 10.6722 3.78836 12.8438 5.52441 14.8398C7.24207 16.8147 9.31415 18.5236 10.71 19.5674C11.4818 20.1445 12.5182 20.1445 13.29 19.5674C14.6859 18.5236 16.7579 16.8147 18.4756 14.8398C20.2116 12.8438 21.5 10.6722 21.5 8.69434ZM22.5 8.69434C22.5 11.0569 20.9935 13.468 19.2295 15.4961C17.4472 17.5451 15.314 19.3023 13.8887 20.3682C12.7618 21.2108 11.2382 21.2108 10.1113 20.3682C8.68599 19.3023 6.55276 17.5451 4.77051 15.4961C3.00653 13.468 1.5 11.0569 1.5 8.69434C1.50005 5.57654 3.8028 3 7 3C8.56439 3 10.0941 3.51003 12 5.30371C13.9059 3.51003 15.4356 3 17 3C20.1972 3 22.4999 5.57654 22.5 8.69434Z" fill="#6A7282"/>
</g>
<defs>
<clipPath id="clip0_2159_9635">
<rect width="22" height="18.0001" fill="white" transform="translate(1 3)"/>
</clipPath>
</defs>
</svg>
